<?xml version="1.0" encoding="utf-8"?>
<!-- Generator: Adobe Illustrator 10.0, SVG Export Plug-In . SVG Version: 3.0.0 Build 76)  -->
<!DOCTYPE svg PUBLIC "-//W3C//DTD SVG 1.0//EN"    "http://www.w3.org/TR/2001/REC-SVG-20010904/DTD/svg10.dtd" [
	<!ENTITY ns_flows "http://ns.adobe.com/Flows/1.0/">
	<!ENTITY ns_svg "http://www.w3.org/2000/svg">
	<!ENTITY ns_xlink "http://www.w3.org/1999/xlink">
]>
<svg  xmlns="&ns_svg;" xmlns:xlink="&ns_xlink;" xmlns:a="http://ns.adobe.com/AdobeSVGViewerExtensions/3.0/"
	 width="345.333" height="244" viewBox="0 0 345.333 244" enable-background="new 0 0 345.333 244" xml:space="preserve">
	<g id="Layer_1">
		<path fill="#FFFCF3" d="M345.333,244H0V0h345.333V244z"/>
		<g>
			<g>
				<path d="M32.029,14.883l1.775-0.859h0.178v6.141c0,0.406,0.017,0.658,0.051,0.758s0.105,0.176,0.213,0.229
					c0.107,0.054,0.327,0.084,0.658,0.091v0.203H32.17v-0.203c0.339-0.007,0.558-0.036,0.657-0.088
					c0.099-0.052,0.168-0.121,0.207-0.208c0.039-0.087,0.058-0.348,0.058-0.782v-3.922c0-0.53-0.018-0.87-0.054-1.021
					c-0.025-0.115-0.071-0.199-0.137-0.252c-0.066-0.054-0.146-0.081-0.238-0.081c-0.133,0-0.317,0.056-0.553,0.167L32.029,14.883z"
					/>
				<path d="M37.195,20.399c0.167,0,0.308,0.058,0.422,0.174c0.114,0.116,0.171,0.256,0.171,0.42s-0.058,0.304-0.174,0.42
					c-0.116,0.116-0.256,0.174-0.42,0.174s-0.304-0.058-0.42-0.174c-0.116-0.116-0.174-0.256-0.174-0.42
					c0-0.167,0.058-0.309,0.174-0.423C36.891,20.456,37.031,20.399,37.195,20.399z"/>
				<path d="M43.301,14.024v0.203c-0.475,0.046-0.863,0.14-1.163,0.281c-0.3,0.141-0.597,0.355-0.891,0.645
					s-0.536,0.611-0.729,0.967c-0.192,0.354-0.354,0.777-0.484,1.266c0.52-0.355,1.042-0.533,1.565-0.533
					c0.501,0,0.937,0.2,1.305,0.601c0.368,0.4,0.552,0.915,0.552,1.544c0,0.608-0.185,1.162-0.556,1.663
					c-0.446,0.608-1.036,0.912-1.77,0.912c-0.5,0-0.925-0.164-1.274-0.493c-0.684-0.64-1.025-1.469-1.025-2.487
					c0-0.65,0.131-1.268,0.393-1.854c0.262-0.586,0.636-1.105,1.123-1.56c0.486-0.454,0.952-0.759,1.397-0.917
					c0.445-0.157,0.86-0.236,1.244-0.236H43.301z M39.941,17.777c-0.063,0.482-0.094,0.872-0.094,1.169
					c0,0.344,0.064,0.716,0.193,1.119s0.32,0.721,0.573,0.958c0.185,0.168,0.409,0.252,0.673,0.252c0.315,0,0.597-0.146,0.845-0.439
					c0.248-0.293,0.372-0.712,0.372-1.256c0-0.611-0.124-1.14-0.37-1.587c-0.247-0.447-0.597-0.671-1.05-0.671
					c-0.138,0-0.286,0.029-0.443,0.086S40.25,17.587,39.941,17.777z"/>
				<path d="M44.26,17.851c0-0.829,0.126-1.543,0.378-2.142s0.587-1.044,1.004-1.337c0.324-0.232,0.658-0.349,1.004-0.349
					c0.562,0,1.065,0.284,1.512,0.853c0.558,0.704,0.836,1.658,0.836,2.862c0,0.843-0.123,1.56-0.367,2.15
					c-0.245,0.589-0.557,1.018-0.937,1.283c-0.38,0.267-0.746,0.399-1.099,0.399c-0.698,0-1.279-0.409-1.744-1.228
					C44.456,19.654,44.26,18.823,44.26,17.851z M45.307,17.984c0,0.999,0.125,1.814,0.376,2.445
					c0.207,0.532,0.515,0.797,0.925,0.797c0.196,0,0.399-0.086,0.61-0.26c0.21-0.173,0.37-0.463,0.479-0.869
					c0.167-0.613,0.25-1.479,0.25-2.595c0-0.828-0.087-1.518-0.261-2.071c-0.131-0.41-0.299-0.701-0.506-0.872
					c-0.149-0.118-0.329-0.177-0.539-0.177c-0.247,0-0.466,0.109-0.659,0.326c-0.261,0.296-0.439,0.762-0.534,1.397
					S45.307,17.368,45.307,17.984z"/>
			</g>
			<g>
				<path d="M148.942,226.109v0.219c-0.208,0-0.375,0.037-0.504,0.111c-0.129,0.074-0.252,0.213-0.37,0.416
					c-0.079,0.137-0.202,0.463-0.37,0.978l-2.208,6.401h-0.245l-1.812-5.075l-1.795,5.075h-0.217l-2.354-6.592
					c-0.176-0.493-0.288-0.784-0.334-0.874c-0.078-0.149-0.185-0.26-0.32-0.332s-0.318-0.108-0.548-0.108v-0.219h2.933v0.219h-0.141
					c-0.208,0-0.366,0.047-0.476,0.141c-0.109,0.094-0.164,0.208-0.164,0.341c0,0.137,0.086,0.452,0.258,0.945l1.57,4.46
					l1.325-3.791l-0.238-0.667l-0.188-0.535c-0.083-0.195-0.174-0.368-0.276-0.517c-0.051-0.075-0.114-0.137-0.188-0.188
					c-0.098-0.071-0.196-0.122-0.294-0.153c-0.074-0.023-0.192-0.035-0.353-0.035v-0.219h3.097v0.219h-0.211
					c-0.219,0-0.38,0.047-0.481,0.141s-0.152,0.222-0.152,0.382c0,0.2,0.088,0.549,0.264,1.047l1.526,4.318l1.511-4.375
					c0.172-0.487,0.258-0.824,0.258-1.013c0-0.091-0.028-0.175-0.085-0.253s-0.128-0.133-0.214-0.165
					c-0.149-0.055-0.342-0.083-0.581-0.083v-0.219H148.942z"/>
				<path d="M152.438,233.279c-0.55,0.429-0.896,0.677-1.036,0.745c-0.211,0.098-0.436,0.147-0.673,0.147
					c-0.371,0-0.676-0.127-0.916-0.381c-0.24-0.254-0.36-0.589-0.36-1.003c0-0.262,0.058-0.489,0.175-0.68
					c0.16-0.266,0.438-0.517,0.834-0.751s1.054-0.52,1.975-0.856v-0.211c0-0.534-0.084-0.901-0.253-1.1
					c-0.169-0.199-0.414-0.299-0.736-0.299c-0.245,0-0.438,0.066-0.582,0.2c-0.147,0.133-0.221,0.286-0.221,0.458l0.012,0.34
					c0,0.18-0.046,0.319-0.139,0.417c-0.093,0.098-0.214,0.146-0.364,0.146c-0.146,0-0.266-0.051-0.358-0.153
					s-0.139-0.241-0.139-0.417c0-0.337,0.172-0.646,0.516-0.928s0.826-0.423,1.447-0.423c0.477,0,0.867,0.08,1.172,0.239
					c0.23,0.121,0.4,0.31,0.51,0.566c0.07,0.167,0.105,0.51,0.105,1.027v1.816c0,0.51,0.01,0.823,0.029,0.937
					c0.02,0.115,0.052,0.192,0.097,0.23c0.045,0.039,0.097,0.059,0.156,0.059c0.063,0,0.117-0.014,0.165-0.041
					c0.082-0.051,0.241-0.193,0.476-0.428v0.328c-0.438,0.583-0.857,0.875-1.257,0.875c-0.192,0-0.344-0.065-0.458-0.195
					C152.501,233.815,152.442,233.593,152.438,233.279z M152.438,232.899v-2.04c-0.593,0.234-0.977,0.399-1.149,0.497
					c-0.311,0.171-0.532,0.351-0.666,0.538c-0.134,0.187-0.2,0.392-0.2,0.613c0,0.281,0.084,0.514,0.253,0.699
					c0.169,0.185,0.363,0.277,0.583,0.277C151.558,233.484,151.951,233.289,152.438,232.899z"/>
				<path d="M154.473,228.687h2.518v0.219h-0.165c-0.152,0-0.268,0.037-0.347,0.111s-0.119,0.174-0.119,0.299
					c0,0.137,0.041,0.299,0.122,0.486l1.242,2.965l1.242-3.076c0.09-0.219,0.135-0.385,0.135-0.498c0-0.055-0.016-0.1-0.047-0.135
					c-0.043-0.059-0.098-0.099-0.165-0.12s-0.201-0.032-0.405-0.032v-0.219h1.756v0.219c-0.204,0.016-0.344,0.058-0.422,0.125
					c-0.137,0.119-0.26,0.318-0.37,0.596l-1.871,4.592h-0.271l-1.896-4.525c-0.086-0.211-0.168-0.363-0.247-0.456
					c-0.078-0.092-0.178-0.169-0.299-0.232c-0.066-0.035-0.197-0.068-0.393-0.1V228.687z"/>
				<path d="M161.651,230.718c-0.004,0.79,0.19,1.409,0.581,1.858c0.391,0.449,0.85,0.673,1.378,0.673
					c0.352,0,0.658-0.095,0.918-0.286c0.26-0.19,0.478-0.522,0.654-0.996l0.188,0.117c-0.082,0.543-0.321,1.035-0.716,1.474
					c-0.395,0.439-0.89,0.659-1.484,0.659c-0.646,0-1.198-0.25-1.657-0.752c-0.459-0.501-0.689-1.175-0.689-2.021
					c0-0.917,0.236-1.632,0.707-2.145s1.063-0.77,1.775-0.77c0.602,0,1.097,0.198,1.484,0.595s0.581,0.928,0.581,1.592H161.651z
					 M161.651,230.375h2.5c-0.02-0.342-0.061-0.583-0.124-0.723c-0.099-0.217-0.245-0.388-0.439-0.513
					c-0.195-0.124-0.398-0.187-0.61-0.187c-0.326,0-0.618,0.125-0.875,0.376S161.695,229.928,161.651,230.375z"/>
				<path d="M167.921,225.718v7.125c0,0.335,0.024,0.558,0.074,0.667c0.049,0.109,0.125,0.191,0.228,0.248s0.294,0.085,0.574,0.085
					v0.219h-2.641v-0.219c0.248,0,0.417-0.025,0.507-0.076s0.161-0.134,0.212-0.251c0.051-0.117,0.077-0.341,0.077-0.673v-4.859
					c0-0.609-0.014-0.983-0.041-1.123c-0.027-0.139-0.071-0.235-0.132-0.286s-0.138-0.076-0.231-0.076
					c-0.102,0-0.23,0.031-0.387,0.094l-0.1-0.219l1.596-0.656H167.921z"/>
				<path d="M170.321,230.718c-0.004,0.79,0.19,1.409,0.581,1.858c0.391,0.449,0.85,0.673,1.378,0.673
					c0.352,0,0.658-0.095,0.918-0.286c0.26-0.19,0.478-0.522,0.654-0.996l0.188,0.117c-0.082,0.543-0.321,1.035-0.716,1.474
					c-0.395,0.439-0.89,0.659-1.484,0.659c-0.646,0-1.198-0.25-1.657-0.752c-0.459-0.501-0.689-1.175-0.689-2.021
					c0-0.917,0.236-1.632,0.707-2.145s1.063-0.77,1.775-0.77c0.602,0,1.097,0.198,1.484,0.595s0.581,0.928,0.581,1.592H170.321z
					 M170.321,230.375h2.5c-0.02-0.342-0.061-0.583-0.124-0.723c-0.099-0.217-0.245-0.388-0.439-0.513
					c-0.195-0.124-0.398-0.187-0.61-0.187c-0.326,0-0.618,0.125-0.875,0.376S170.364,229.928,170.321,230.375z"/>
				<path d="M176.309,229.652c0.629-0.747,1.229-1.121,1.799-1.121c0.293,0,0.545,0.073,0.756,0.22s0.379,0.388,0.504,0.724
					c0.086,0.234,0.129,0.594,0.129,1.078v2.291c0,0.339,0.027,0.569,0.083,0.69c0.043,0.098,0.113,0.173,0.21,0.228
					s0.275,0.082,0.536,0.082v0.219h-2.672v-0.219h0.112c0.252,0,0.428-0.038,0.529-0.114c0.101-0.076,0.17-0.188,0.21-0.336
					c0.016-0.059,0.024-0.242,0.024-0.55v-2.208c0-0.491-0.063-0.847-0.19-1.068s-0.341-0.333-0.641-0.333
					c-0.464,0-0.927,0.255-1.387,0.766v2.844c0,0.363,0.021,0.587,0.064,0.673c0.055,0.113,0.13,0.195,0.226,0.248
					c0.096,0.053,0.291,0.079,0.584,0.079v0.219h-2.641v-0.219h0.115c0.267,0,0.448-0.069,0.542-0.208s0.141-0.403,0.141-0.792
					v-1.984c0-0.645-0.015-1.037-0.044-1.178s-0.075-0.236-0.135-0.287c-0.061-0.051-0.142-0.076-0.244-0.076
					c-0.11,0-0.241,0.029-0.394,0.088l-0.088-0.219l1.622-0.656h0.253V229.652z"/>
				<path d="M182.194,232.091c-0.328-0.16-0.58-0.383-0.756-0.669s-0.263-0.603-0.263-0.95c0-0.53,0.2-0.986,0.602-1.368
					c0.401-0.382,0.915-0.573,1.541-0.573c0.512,0,0.957,0.125,1.332,0.375h1.139c0.168,0,0.266,0.005,0.293,0.015
					s0.047,0.027,0.059,0.05c0.023,0.036,0.035,0.099,0.035,0.189c0,0.103-0.01,0.173-0.03,0.212
					c-0.012,0.02-0.033,0.036-0.063,0.047s-0.129,0.018-0.299,0.018h-0.703c0.219,0.281,0.329,0.64,0.329,1.077
					c0,0.5-0.191,0.926-0.574,1.282c-0.383,0.354-0.896,0.532-1.54,0.532c-0.266,0-0.537-0.04-0.814-0.121
					c-0.175,0.147-0.293,0.277-0.354,0.388c-0.062,0.11-0.092,0.205-0.092,0.282c0,0.066,0.032,0.13,0.097,0.192
					c0.065,0.062,0.191,0.106,0.38,0.134c0.11,0.018,0.385,0.034,0.825,0.047c0.809,0.022,1.334,0.054,1.574,0.094
					c0.365,0.051,0.657,0.185,0.875,0.403c0.218,0.218,0.327,0.486,0.327,0.805c0,0.439-0.208,0.852-0.624,1.237
					c-0.612,0.568-1.41,0.852-2.394,0.852c-0.757,0-1.396-0.169-1.917-0.508c-0.294-0.194-0.441-0.396-0.441-0.606
					c0-0.094,0.021-0.188,0.064-0.28c0.066-0.145,0.203-0.345,0.411-0.602c0.027-0.035,0.227-0.245,0.599-0.63
					c-0.204-0.122-0.348-0.231-0.432-0.327c-0.084-0.097-0.126-0.206-0.126-0.328c0-0.137,0.056-0.298,0.167-0.483
					S181.79,232.43,182.194,232.091z M182.132,234.062c-0.182,0.198-0.319,0.382-0.412,0.553c-0.093,0.17-0.139,0.328-0.139,0.472
					c0,0.186,0.114,0.349,0.341,0.489c0.393,0.241,0.959,0.361,1.702,0.361c0.706,0,1.227-0.123,1.563-0.368
					c0.335-0.246,0.503-0.508,0.503-0.786c0-0.201-0.101-0.344-0.301-0.429c-0.205-0.085-0.61-0.135-1.215-0.151
					C183.289,234.178,182.608,234.131,182.132,234.062z M183.208,228.828c-0.289,0-0.53,0.114-0.725,0.343
					c-0.195,0.229-0.292,0.58-0.292,1.053c0,0.612,0.132,1.087,0.397,1.424c0.203,0.256,0.46,0.384,0.772,0.384
					c0.296,0,0.54-0.11,0.731-0.331c0.191-0.221,0.287-0.568,0.287-1.041c0-0.616-0.135-1.099-0.404-1.447
					C183.775,228.956,183.52,228.828,183.208,228.828z"/>
				<path d="M188.322,226.921v1.766h1.255v0.406h-1.255v3.488c0,0.349,0.05,0.583,0.151,0.705c0.101,0.121,0.23,0.182,0.388,0.182
					c0.13,0,0.257-0.04,0.379-0.119s0.217-0.196,0.285-0.35h0.234c-0.138,0.384-0.333,0.672-0.585,0.866
					c-0.252,0.194-0.512,0.291-0.78,0.291c-0.182,0-0.359-0.05-0.532-0.15s-0.302-0.243-0.384-0.429
					c-0.083-0.186-0.124-0.473-0.124-0.861v-3.622h-0.844v-0.191c0.213-0.086,0.432-0.231,0.655-0.436s0.422-0.448,0.597-0.729
					c0.089-0.148,0.213-0.42,0.373-0.815H188.322z"/>
				<path d="M191.675,225.718v3.927c0.435-0.475,0.78-0.778,1.035-0.913c0.255-0.134,0.51-0.201,0.765-0.201
					c0.306,0,0.568,0.084,0.788,0.252s0.382,0.432,0.488,0.791c0.074,0.25,0.112,0.707,0.112,1.371v1.898
					c0,0.339,0.027,0.571,0.082,0.696c0.039,0.094,0.105,0.167,0.199,0.222s0.266,0.082,0.516,0.082v0.219h-2.641v-0.219h0.124
					c0.252,0,0.427-0.038,0.526-0.114c0.099-0.076,0.167-0.188,0.207-0.336c0.012-0.063,0.018-0.246,0.018-0.55v-1.901
					c0-0.587-0.031-0.972-0.092-1.156c-0.061-0.184-0.158-0.322-0.292-0.414c-0.134-0.092-0.295-0.138-0.484-0.138
					c-0.193,0-0.393,0.051-0.602,0.153s-0.458,0.307-0.75,0.617v2.84c0,0.367,0.021,0.595,0.062,0.685
					c0.042,0.089,0.118,0.164,0.23,0.225s0.307,0.091,0.583,0.091v0.219h-2.672v-0.219c0.24,0,0.43-0.037,0.568-0.111
					c0.079-0.039,0.142-0.113,0.189-0.222c0.047-0.109,0.071-0.332,0.071-0.667v-4.859c0-0.609-0.015-0.983-0.044-1.123
					s-0.075-0.234-0.135-0.285c-0.061-0.051-0.142-0.076-0.244-0.076c-0.083,0-0.216,0.031-0.4,0.094l-0.082-0.219l1.605-0.656
					H191.675z"/>
				<path d="M202.066,229.966l-1.995,4.096h-1.043l2.696-5.532l-0.1-0.512c-0.118-0.554-0.275-0.93-0.473-1.128
					c-0.198-0.198-0.418-0.297-0.661-0.297c-0.22,0-0.412,0.079-0.576,0.235c-0.165,0.157-0.272,0.412-0.323,0.765h-0.219
					c0.012-0.608,0.163-1.095,0.453-1.462c0.208-0.265,0.461-0.397,0.76-0.397c0.263,0,0.488,0.104,0.677,0.31
					c0.282,0.316,0.514,0.874,0.694,1.673l0.939,4.135c0.141,0.615,0.302,1.014,0.482,1.196c0.177,0.187,0.385,0.28,0.624,0.28
					c0.228,0,0.415-0.075,0.562-0.227s0.234-0.394,0.262-0.727h0.219c0,0.102,0,0.178,0,0.228c0,0.511-0.126,0.922-0.379,1.234
					c-0.191,0.233-0.44,0.351-0.747,0.351c-0.272,0-0.516-0.115-0.729-0.345c-0.214-0.23-0.415-0.759-0.602-1.585L202.066,229.966z"
					/>
				<path d="M212.077,236.406v0.219c-0.593-0.297-1.087-0.645-1.483-1.044c-0.565-0.566-1.001-1.235-1.307-2.005
					c-0.306-0.771-0.459-1.569-0.459-2.398c0-1.212,0.3-2.317,0.901-3.315c0.601-0.999,1.383-1.713,2.349-2.144v0.25
					c-0.485,0.266-0.884,0.629-1.196,1.09c-0.312,0.461-0.544,1.045-0.698,1.752c-0.154,0.708-0.231,1.446-0.231,2.215
					c0,0.836,0.065,1.596,0.195,2.28c0.103,0.539,0.227,0.972,0.373,1.298c0.146,0.326,0.342,0.64,0.589,0.94
					S211.679,236.132,212.077,236.406z"/>
				<path d="M217.89,228.687v3.524c0,0.468,0.021,0.797,0.065,0.986c0.035,0.135,0.088,0.231,0.159,0.291s0.145,0.089,0.224,0.089
					c0.098,0,0.189-0.049,0.273-0.148s0.146-0.294,0.186-0.586h0.234c-0.066,0.526-0.195,0.89-0.386,1.09s-0.432,0.301-0.724,0.301
					c-0.289,0-0.519-0.089-0.69-0.266c-0.171-0.177-0.274-0.484-0.31-0.921c-0.397,0.442-0.774,0.751-1.131,0.925
					c-0.356,0.175-0.666,0.262-0.926,0.262c-0.175,0-0.347-0.035-0.515-0.104c-0.167-0.068-0.331-0.17-0.491-0.304
					c-0.008,0.57,0.045,1.069,0.16,1.494c0.081,0.303,0.121,0.516,0.121,0.638c0,0.213-0.055,0.382-0.165,0.508
					s-0.235,0.189-0.375,0.189c-0.144,0-0.261-0.055-0.353-0.164c-0.124-0.149-0.186-0.335-0.186-0.558
					c0-0.109,0.023-0.247,0.07-0.411c0.108-0.367,0.176-0.688,0.204-0.962c0.046-0.47,0.07-0.869,0.07-1.197v-4.677h0.984v3.372
					c0,0.397,0.033,0.684,0.1,0.859c0.066,0.175,0.185,0.313,0.356,0.414c0.171,0.101,0.343,0.151,0.515,0.151
					c0.203,0,0.442-0.061,0.719-0.181s0.557-0.315,0.842-0.584v-4.031H217.89z"/>
				<path d="M221.218,229.674c0.389-0.391,0.619-0.616,0.689-0.674c0.175-0.148,0.364-0.264,0.566-0.346s0.403-0.123,0.602-0.123
					c0.334,0,0.623,0.098,0.864,0.293c0.241,0.195,0.403,0.479,0.484,0.85c0.405-0.469,0.748-0.777,1.027-0.923
					s0.566-0.22,0.861-0.22c0.287,0,0.542,0.073,0.764,0.22s0.398,0.386,0.528,0.718c0.086,0.227,0.13,0.582,0.13,1.066v2.309
					c0,0.335,0.025,0.565,0.075,0.69c0.039,0.086,0.109,0.159,0.213,0.219s0.273,0.091,0.508,0.091v0.219h-2.641v-0.219h0.112
					c0.232,0,0.414-0.045,0.544-0.135c0.091-0.062,0.156-0.161,0.195-0.298c0.016-0.066,0.023-0.255,0.023-0.567v-2.309
					c0-0.438-0.053-0.746-0.16-0.926c-0.154-0.25-0.401-0.375-0.741-0.375c-0.209,0-0.42,0.052-0.631,0.155
					c-0.211,0.104-0.467,0.297-0.768,0.578l-0.012,0.064l0.031,0.252v2.56c0,0.367,0.021,0.595,0.062,0.685
					c0.041,0.089,0.119,0.164,0.232,0.225c0.114,0.061,0.308,0.091,0.582,0.091v0.219h-2.719v-0.219
					c0.297,0,0.502-0.035,0.614-0.105c0.111-0.07,0.189-0.175,0.232-0.315c0.02-0.066,0.029-0.259,0.029-0.579v-2.308
					c0-0.437-0.064-0.751-0.194-0.943c-0.172-0.249-0.413-0.374-0.723-0.374c-0.211,0-0.421,0.057-0.628,0.17
					c-0.325,0.172-0.576,0.365-0.752,0.579v2.876c0,0.351,0.024,0.579,0.073,0.685c0.049,0.105,0.122,0.184,0.217,0.236
					c0.096,0.053,0.291,0.079,0.584,0.079v0.219h-2.641v-0.219c0.241,0,0.409-0.026,0.504-0.079s0.168-0.136,0.218-0.251
					c0.05-0.115,0.075-0.338,0.075-0.67v-2.047c0-0.588-0.018-0.968-0.053-1.14c-0.028-0.128-0.071-0.217-0.13-0.266
					c-0.059-0.049-0.139-0.073-0.241-0.073c-0.11,0-0.242,0.029-0.395,0.088l-0.088-0.219l1.623-0.656h0.252V229.674z"/>
				<path d="M228.843,225.968v-0.25c0.597,0.293,1.093,0.639,1.49,1.038c0.561,0.57,0.995,1.24,1.301,2.008
					c0.306,0.769,0.459,1.569,0.459,2.401c0,1.212-0.299,2.317-0.898,3.316s-1.382,1.713-2.352,2.143v-0.219
					c0.485-0.27,0.885-0.634,1.199-1.093c0.313-0.459,0.546-1.043,0.698-1.752s0.228-1.449,0.228-2.218
					c0-0.832-0.065-1.592-0.195-2.28c-0.099-0.539-0.222-0.971-0.37-1.295s-0.344-0.637-0.589-0.938
					S229.245,226.242,228.843,225.968z"/>
			</g>
			<path fill="none" stroke="#000000" stroke-width="0.5994" stroke-linecap="square" stroke-miterlimit="10" d="M54.333,18.667
				v5.994"/>
			<path fill="none" stroke="#000000" stroke-width="0.5994" stroke-linecap="square" stroke-miterlimit="10" d="M54.333,198.49
				v5.994"/>
			<g>
				<path d="M48.724,215.278c0-0.829,0.126-1.543,0.378-2.142s0.587-1.044,1.004-1.337c0.324-0.232,0.659-0.349,1.004-0.349
					c0.562,0,1.065,0.284,1.512,0.853c0.558,0.704,0.837,1.658,0.837,2.862c0,0.843-0.123,1.56-0.367,2.15
					c-0.245,0.589-0.557,1.018-0.937,1.283c-0.38,0.267-0.746,0.399-1.099,0.399c-0.698,0-1.279-0.409-1.744-1.228
					C48.92,217.081,48.724,216.25,48.724,215.278z M49.771,215.411c0,0.999,0.125,1.814,0.376,2.445
					c0.207,0.532,0.515,0.797,0.925,0.797c0.196,0,0.399-0.086,0.61-0.26c0.21-0.173,0.37-0.463,0.479-0.869
					c0.167-0.613,0.25-1.479,0.25-2.595c0-0.828-0.087-1.518-0.261-2.071c-0.131-0.41-0.299-0.701-0.506-0.872
					c-0.149-0.118-0.329-0.177-0.539-0.177c-0.247,0-0.467,0.109-0.659,0.326c-0.261,0.296-0.439,0.762-0.533,1.397
					C49.818,214.168,49.771,214.794,49.771,215.411z"/>
				<path d="M54.796,217.826c0.167,0,0.308,0.058,0.422,0.174c0.114,0.116,0.171,0.256,0.171,0.42s-0.058,0.304-0.174,0.42
					c-0.116,0.116-0.256,0.174-0.42,0.174s-0.304-0.058-0.42-0.174c-0.116-0.116-0.174-0.256-0.174-0.42
					c0-0.167,0.058-0.309,0.174-0.423C54.492,217.883,54.632,217.826,54.796,217.826z"/>
				<path d="M61.011,217.454l-0.511,1.419h-4.302v-0.203c1.268-1.151,2.16-2.092,2.677-2.822c0.517-0.729,0.776-1.396,0.776-2.002
					c0-0.457-0.142-0.832-0.426-1.126c-0.285-0.293-0.625-0.44-1.021-0.44c-0.36,0-0.683,0.104-0.969,0.31s-0.498,0.509-0.634,0.909
					h-0.2c0.09-0.659,0.321-1.165,0.694-1.518c0.372-0.353,0.837-0.529,1.395-0.529c0.594,0,1.089,0.189,1.487,0.566
					c0.397,0.378,0.596,0.823,0.596,1.337c0,0.367-0.086,0.735-0.259,1.104c-0.266,0.58-0.698,1.194-1.294,1.842
					c-0.896,0.972-1.449,1.553-1.659,1.745h1.892c0.385,0,0.654-0.014,0.81-0.043c0.155-0.028,0.294-0.087,0.419-0.175
					c0.125-0.087,0.233-0.212,0.326-0.373H61.011z"/>
			</g>
			<path fill="none" stroke="#000000" stroke-width="0.5994" stroke-linecap="square" stroke-miterlimit="10" d="M92.736,18.667
				v5.994"/>
			<path fill="none" stroke="#000000" stroke-width="0.5994" stroke-linecap="square" stroke-miterlimit="10" d="M92.736,198.49
				v5.994"/>
			<g>
				<path d="M87.127,215.278c0-0.829,0.126-1.543,0.378-2.142s0.586-1.044,1.004-1.337c0.323-0.232,0.658-0.349,1.004-0.349
					c0.562,0,1.065,0.284,1.512,0.853c0.558,0.704,0.836,1.658,0.836,2.862c0,0.843-0.123,1.56-0.367,2.15
					c-0.245,0.589-0.557,1.018-0.937,1.283c-0.38,0.267-0.746,0.399-1.099,0.399c-0.698,0-1.279-0.409-1.744-1.228
					C87.323,217.081,87.127,216.25,87.127,215.278z M88.174,215.411c0,0.999,0.125,1.814,0.375,2.445
					c0.207,0.532,0.516,0.797,0.926,0.797c0.196,0,0.399-0.086,0.609-0.26c0.211-0.173,0.371-0.463,0.479-0.869
					c0.167-0.613,0.25-1.479,0.25-2.595c0-0.828-0.087-1.518-0.261-2.071c-0.131-0.41-0.3-0.701-0.506-0.872
					c-0.149-0.118-0.329-0.177-0.539-0.177c-0.247,0-0.466,0.109-0.659,0.326c-0.262,0.296-0.439,0.762-0.534,1.397
					S88.174,214.794,88.174,215.411z"/>
				<path d="M93.199,217.826c0.167,0,0.308,0.058,0.422,0.174c0.114,0.116,0.171,0.256,0.171,0.42s-0.058,0.304-0.174,0.42
					c-0.116,0.116-0.256,0.174-0.42,0.174s-0.304-0.058-0.42-0.174c-0.116-0.116-0.174-0.256-0.174-0.42
					c0-0.167,0.058-0.309,0.174-0.423C92.895,217.883,93.035,217.826,93.199,217.826z"/>
				<path d="M99.508,216.185v0.766h-0.984v1.922h-0.891v-1.922h-3.094v-0.69l3.391-4.81h0.594v4.734H99.508z M97.633,216.185v-3.608
					l-2.565,3.608H97.633z"/>
			</g>
			<path fill="none" stroke="#000000" stroke-width="0.5994" stroke-linecap="square" stroke-miterlimit="10" d="M131.14,18.667
				v5.994"/>
			<path fill="none" stroke="#000000" stroke-width="0.5994" stroke-linecap="square" stroke-miterlimit="10" d="M131.14,198.49
				v5.994"/>
			<g>
				<path d="M125.529,215.278c0-0.829,0.126-1.543,0.378-2.142s0.586-1.044,1.004-1.337c0.323-0.232,0.658-0.349,1.004-0.349
					c0.562,0,1.065,0.284,1.512,0.853c0.558,0.704,0.836,1.658,0.836,2.862c0,0.843-0.123,1.56-0.367,2.15
					c-0.245,0.589-0.557,1.018-0.937,1.283c-0.38,0.267-0.746,0.399-1.099,0.399c-0.698,0-1.279-0.409-1.744-1.228
					C125.725,217.081,125.529,216.25,125.529,215.278z M126.576,215.411c0,0.999,0.125,1.814,0.375,2.445
					c0.207,0.532,0.516,0.797,0.926,0.797c0.196,0,0.399-0.086,0.609-0.26c0.211-0.173,0.371-0.463,0.479-0.869
					c0.167-0.613,0.25-1.479,0.25-2.595c0-0.828-0.087-1.518-0.261-2.071c-0.131-0.41-0.3-0.701-0.506-0.872
					c-0.149-0.118-0.329-0.177-0.539-0.177c-0.247,0-0.466,0.109-0.659,0.326c-0.262,0.296-0.439,0.762-0.534,1.397
					S126.576,214.794,126.576,215.411z"/>
				<path d="M131.601,217.826c0.167,0,0.308,0.058,0.422,0.174c0.114,0.116,0.171,0.256,0.171,0.42s-0.058,0.304-0.174,0.42
					c-0.116,0.116-0.256,0.174-0.42,0.174s-0.304-0.058-0.42-0.174c-0.116-0.116-0.174-0.256-0.174-0.42
					c0-0.167,0.058-0.309,0.174-0.423C131.297,217.883,131.437,217.826,131.601,217.826z"/>
				<path d="M137.707,211.451v0.203c-0.475,0.046-0.863,0.14-1.163,0.281c-0.3,0.141-0.597,0.355-0.891,0.645
					s-0.536,0.611-0.729,0.967c-0.192,0.354-0.354,0.777-0.484,1.266c0.52-0.355,1.042-0.533,1.565-0.533
					c0.501,0,0.937,0.2,1.305,0.601c0.368,0.4,0.552,0.915,0.552,1.544c0,0.608-0.185,1.162-0.556,1.663
					c-0.446,0.608-1.036,0.912-1.77,0.912c-0.5,0-0.925-0.164-1.274-0.493c-0.684-0.64-1.025-1.469-1.025-2.487
					c0-0.65,0.131-1.268,0.393-1.854c0.262-0.586,0.636-1.105,1.123-1.56c0.486-0.454,0.952-0.759,1.397-0.917
					c0.445-0.157,0.86-0.236,1.244-0.236H137.707z M134.348,215.204c-0.063,0.482-0.094,0.872-0.094,1.169
					c0,0.344,0.064,0.716,0.193,1.119s0.32,0.721,0.573,0.958c0.185,0.168,0.409,0.252,0.673,0.252c0.315,0,0.597-0.146,0.845-0.439
					c0.248-0.293,0.372-0.712,0.372-1.256c0-0.611-0.124-1.14-0.37-1.587c-0.247-0.447-0.597-0.671-1.05-0.671
					c-0.138,0-0.286,0.029-0.443,0.086S134.656,215.014,134.348,215.204z"/>
			</g>
			<path fill="none" stroke="#000000" stroke-width="0.5994" stroke-linecap="square" stroke-miterlimit="10" d="M169.543,18.667
				v5.994"/>
			<path fill="none" stroke="#000000" stroke-width="0.5994" stroke-linecap="square" stroke-miterlimit="10" d="M169.543,198.49
				v5.994"/>
			<g>
				<path d="M163.933,215.278c0-0.829,0.126-1.543,0.378-2.142s0.586-1.044,1.004-1.337c0.323-0.232,0.658-0.349,1.004-0.349
					c0.562,0,1.065,0.284,1.512,0.853c0.558,0.704,0.836,1.658,0.836,2.862c0,0.843-0.123,1.56-0.367,2.15
					c-0.245,0.589-0.557,1.018-0.937,1.283c-0.38,0.267-0.746,0.399-1.099,0.399c-0.698,0-1.279-0.409-1.744-1.228
					C164.128,217.081,163.933,216.25,163.933,215.278z M164.979,215.411c0,0.999,0.125,1.814,0.375,2.445
					c0.207,0.532,0.516,0.797,0.926,0.797c0.196,0,0.399-0.086,0.609-0.26c0.211-0.173,0.371-0.463,0.479-0.869
					c0.167-0.613,0.25-1.479,0.25-2.595c0-0.828-0.087-1.518-0.261-2.071c-0.131-0.41-0.3-0.701-0.506-0.872
					c-0.149-0.118-0.329-0.177-0.539-0.177c-0.247,0-0.466,0.109-0.659,0.326c-0.262,0.296-0.439,0.762-0.534,1.397
					S164.979,214.794,164.979,215.411z"/>
				<path d="M170.004,217.826c0.167,0,0.308,0.058,0.422,0.174c0.114,0.116,0.171,0.256,0.171,0.42s-0.058,0.304-0.174,0.42
					c-0.116,0.116-0.256,0.174-0.42,0.174s-0.304-0.058-0.42-0.174c-0.116-0.116-0.174-0.256-0.174-0.42
					c0-0.167,0.058-0.309,0.174-0.423C169.7,217.883,169.84,217.826,170.004,217.826z"/>
				<path d="M173.296,215.204c-0.574-0.471-0.943-0.849-1.109-1.135c-0.166-0.285-0.249-0.582-0.249-0.889
					c0-0.471,0.183-0.877,0.549-1.218s0.853-0.512,1.459-0.512c0.589,0,1.063,0.159,1.421,0.477s0.539,0.68,0.539,1.086
					c0,0.271-0.098,0.548-0.292,0.83c-0.195,0.282-0.601,0.614-1.218,0.996c0.633,0.487,1.052,0.87,1.257,1.148
					c0.273,0.365,0.41,0.75,0.41,1.154c0,0.512-0.196,0.949-0.588,1.312c-0.392,0.363-0.906,0.545-1.543,0.545
					c-0.694,0-1.235-0.216-1.624-0.649c-0.309-0.347-0.464-0.726-0.464-1.137c0-0.322,0.109-0.641,0.327-0.958
					C172.389,215.937,172.764,215.587,173.296,215.204z M173.55,215.408c-0.298,0.25-0.519,0.522-0.662,0.816
					c-0.144,0.294-0.215,0.613-0.215,0.956c0,0.46,0.126,0.829,0.379,1.105c0.253,0.277,0.575,0.415,0.965,0.415
					c0.387,0,0.698-0.108,0.931-0.326s0.35-0.482,0.35-0.793c0-0.257-0.068-0.487-0.204-0.69
					C174.839,216.513,174.324,216.019,173.55,215.408z M174.143,214.629c0.434-0.387,0.709-0.692,0.825-0.917
					s0.174-0.478,0.174-0.761c0-0.376-0.106-0.671-0.317-0.884c-0.212-0.214-0.5-0.32-0.867-0.32c-0.366,0-0.664,0.106-0.893,0.317
					c-0.23,0.211-0.345,0.459-0.345,0.742c0,0.187,0.047,0.373,0.142,0.559c0.095,0.187,0.229,0.364,0.404,0.532L174.143,214.629z"
					/>
			</g>
			<path fill="none" stroke="#000000" stroke-width="0.5994" stroke-linecap="square" stroke-miterlimit="10" d="M208.546,18.667
				v5.994"/>
			<path fill="none" stroke="#000000" stroke-width="0.5994" stroke-linecap="square" stroke-miterlimit="10" d="M208.546,198.49
				v5.994"/>
			<g>
				<path d="M204.242,212.31l1.775-0.859h0.178v6.141c0,0.406,0.017,0.658,0.051,0.758s0.105,0.176,0.213,0.229
					c0.107,0.054,0.327,0.084,0.658,0.091v0.203h-2.734v-0.203c0.339-0.007,0.558-0.036,0.657-0.088
					c0.099-0.052,0.168-0.121,0.207-0.208c0.039-0.087,0.058-0.348,0.058-0.782v-3.922c0-0.53-0.018-0.87-0.054-1.021
					c-0.025-0.115-0.071-0.199-0.137-0.252c-0.066-0.054-0.146-0.081-0.238-0.081c-0.133,0-0.317,0.056-0.553,0.167L204.242,212.31z
					"/>
				<path d="M209.826,217.826c0.167,0,0.308,0.058,0.422,0.174c0.114,0.116,0.171,0.256,0.171,0.42s-0.058,0.304-0.174,0.42
					c-0.116,0.116-0.256,0.174-0.42,0.174s-0.304-0.058-0.42-0.174c-0.116-0.116-0.174-0.256-0.174-0.42
					c0-0.167,0.058-0.309,0.174-0.423C209.522,217.883,209.662,217.826,209.826,217.826z"/>
				<path d="M211.595,215.278c0-0.829,0.126-1.543,0.378-2.142s0.586-1.044,1.004-1.337c0.324-0.232,0.659-0.349,1.004-0.349
					c0.562,0,1.065,0.284,1.512,0.853c0.558,0.704,0.837,1.658,0.837,2.862c0,0.843-0.123,1.56-0.367,2.15
					c-0.245,0.589-0.557,1.018-0.937,1.283c-0.38,0.267-0.746,0.399-1.099,0.399c-0.698,0-1.279-0.409-1.744-1.228
					C211.791,217.081,211.595,216.25,211.595,215.278z M212.642,215.411c0,0.999,0.125,1.814,0.375,2.445
					c0.207,0.532,0.516,0.797,0.926,0.797c0.196,0,0.399-0.086,0.609-0.26c0.21-0.173,0.371-0.463,0.479-0.869
					c0.167-0.613,0.25-1.479,0.25-2.595c0-0.828-0.087-1.518-0.261-2.071c-0.131-0.41-0.3-0.701-0.506-0.872
					c-0.149-0.118-0.329-0.177-0.539-0.177c-0.247,0-0.467,0.109-0.659,0.326c-0.261,0.296-0.439,0.762-0.533,1.397
					C212.688,214.168,212.642,214.794,212.642,215.411z"/>
			</g>
			<path fill="none" stroke="#000000" stroke-width="0.5994" stroke-linecap="square" stroke-miterlimit="10" d="M246.948,18.667
				v5.994"/>
			<path fill="none" stroke="#000000" stroke-width="0.5994" stroke-linecap="square" stroke-miterlimit="10" d="M246.948,198.49
				v5.994"/>
			<g>
				<path d="M242.245,212.31l1.775-0.859h0.178v6.141c0,0.406,0.017,0.658,0.051,0.758s0.105,0.176,0.213,0.229
					c0.107,0.054,0.327,0.084,0.658,0.091v0.203h-2.734v-0.203c0.339-0.007,0.558-0.036,0.657-0.088
					c0.099-0.052,0.168-0.121,0.207-0.208c0.039-0.087,0.058-0.348,0.058-0.782v-3.922c0-0.53-0.018-0.87-0.054-1.021
					c-0.025-0.115-0.071-0.199-0.137-0.252c-0.066-0.054-0.146-0.081-0.238-0.081c-0.133,0-0.317,0.056-0.553,0.167L242.245,212.31z
					"/>
				<path d="M247.411,217.826c0.167,0,0.308,0.058,0.422,0.174c0.114,0.116,0.171,0.256,0.171,0.42s-0.058,0.304-0.174,0.42
					c-0.116,0.116-0.256,0.174-0.42,0.174s-0.304-0.058-0.42-0.174c-0.116-0.116-0.174-0.256-0.174-0.42
					c0-0.167,0.058-0.309,0.174-0.423C247.106,217.883,247.247,217.826,247.411,217.826z"/>
				<path d="M253.626,217.454l-0.511,1.419h-4.302v-0.203c1.268-1.151,2.16-2.092,2.677-2.822c0.517-0.729,0.776-1.396,0.776-2.002
					c0-0.457-0.142-0.832-0.426-1.126c-0.285-0.293-0.625-0.44-1.021-0.44c-0.36,0-0.683,0.104-0.969,0.31s-0.498,0.509-0.634,0.909
					h-0.2c0.09-0.659,0.321-1.165,0.694-1.518c0.372-0.353,0.837-0.529,1.395-0.529c0.594,0,1.089,0.189,1.487,0.566
					c0.397,0.378,0.596,0.823,0.596,1.337c0,0.367-0.086,0.735-0.259,1.104c-0.266,0.58-0.698,1.194-1.294,1.842
					c-0.896,0.972-1.449,1.553-1.659,1.745h1.892c0.385,0,0.654-0.014,0.81-0.043c0.155-0.028,0.294-0.087,0.419-0.175
					c0.125-0.087,0.233-0.212,0.326-0.373H253.626z"/>
			</g>
			<path fill="none" stroke="#000000" stroke-width="0.5994" stroke-linecap="square" stroke-miterlimit="10" d="M285.351,18.667
				v5.994"/>
			<path fill="none" stroke="#000000" stroke-width="0.5994" stroke-linecap="square" stroke-miterlimit="10" d="M285.351,198.49
				v5.994"/>
			<g>
				<path d="M280.648,212.31l1.775-0.859h0.178v6.141c0,0.406,0.017,0.658,0.051,0.758s0.105,0.176,0.213,0.229
					c0.107,0.054,0.327,0.084,0.658,0.091v0.203h-2.734v-0.203c0.339-0.007,0.558-0.036,0.657-0.088
					c0.099-0.052,0.168-0.121,0.207-0.208c0.039-0.087,0.058-0.348,0.058-0.782v-3.922c0-0.53-0.018-0.87-0.054-1.021
					c-0.025-0.115-0.071-0.199-0.137-0.252c-0.066-0.054-0.146-0.081-0.238-0.081c-0.133,0-0.317,0.056-0.553,0.167L280.648,212.31z
					"/>
				<path d="M285.814,217.826c0.167,0,0.309,0.058,0.423,0.174c0.113,0.116,0.171,0.256,0.171,0.42s-0.059,0.304-0.174,0.42
					c-0.116,0.116-0.256,0.174-0.42,0.174s-0.305-0.058-0.42-0.174c-0.116-0.116-0.174-0.256-0.174-0.42
					c0-0.167,0.058-0.309,0.174-0.423C285.509,217.883,285.65,217.826,285.814,217.826z"/>
				<path d="M292.124,216.185v0.766h-0.984v1.922h-0.891v-1.922h-3.094v-0.69l3.391-4.81h0.594v4.734H292.124z M290.249,216.185
					v-3.608l-2.565,3.608H290.249z"/>
			</g>
			<g>
				<path d="M319.05,212.31l1.775-0.859h0.178v6.141c0,0.406,0.018,0.658,0.051,0.758c0.035,0.1,0.105,0.176,0.213,0.229
					c0.108,0.054,0.327,0.084,0.658,0.091v0.203h-2.734v-0.203c0.339-0.007,0.558-0.036,0.657-0.088
					c0.099-0.052,0.167-0.121,0.206-0.208c0.039-0.087,0.059-0.348,0.059-0.782v-3.922c0-0.53-0.018-0.87-0.054-1.021
					c-0.025-0.115-0.071-0.199-0.137-0.252c-0.066-0.054-0.146-0.081-0.239-0.081c-0.132,0-0.316,0.056-0.553,0.167L319.05,212.31z"
					/>
				<path d="M324.215,217.826c0.168,0,0.309,0.058,0.423,0.174c0.114,0.116,0.171,0.256,0.171,0.42s-0.058,0.304-0.174,0.42
					c-0.115,0.116-0.256,0.174-0.42,0.174s-0.304-0.058-0.42-0.174c-0.115-0.116-0.174-0.256-0.174-0.42
					c0-0.167,0.059-0.309,0.174-0.423C323.912,217.883,324.051,217.826,324.215,217.826z"/>
				<path d="M330.322,211.451v0.203c-0.475,0.046-0.862,0.14-1.163,0.281c-0.301,0.141-0.598,0.355-0.891,0.645
					s-0.536,0.611-0.729,0.967c-0.192,0.354-0.354,0.777-0.484,1.266c0.52-0.355,1.042-0.533,1.565-0.533
					c0.502,0,0.937,0.2,1.305,0.601s0.553,0.915,0.553,1.544c0,0.608-0.186,1.162-0.556,1.663c-0.446,0.608-1.036,0.912-1.771,0.912
					c-0.5,0-0.925-0.164-1.273-0.493c-0.684-0.64-1.025-1.469-1.025-2.487c0-0.65,0.131-1.268,0.394-1.854
					c0.262-0.586,0.636-1.105,1.122-1.56c0.486-0.454,0.952-0.759,1.397-0.917c0.444-0.157,0.859-0.236,1.243-0.236H330.322z
					 M326.962,215.204c-0.063,0.482-0.094,0.872-0.094,1.169c0,0.344,0.064,0.716,0.193,1.119c0.128,0.402,0.319,0.721,0.572,0.958
					c0.185,0.168,0.409,0.252,0.674,0.252c0.315,0,0.597-0.146,0.845-0.439c0.248-0.293,0.372-0.712,0.372-1.256
					c0-0.611-0.123-1.14-0.37-1.587c-0.246-0.447-0.597-0.671-1.05-0.671c-0.138,0-0.286,0.029-0.443,0.086
					C327.503,214.891,327.271,215.014,326.962,215.204z"/>
			</g>
			<g>
				<path d="M32.029,200.918l1.775-0.859h0.178v6.141c0,0.406,0.017,0.658,0.051,0.758s0.105,0.176,0.213,0.229
					c0.108,0.054,0.327,0.084,0.658,0.091v0.203h-2.734v-0.203c0.339-0.007,0.558-0.036,0.657-0.088
					c0.099-0.052,0.167-0.121,0.206-0.208c0.039-0.087,0.059-0.348,0.059-0.782v-3.922c0-0.53-0.018-0.87-0.054-1.021
					c-0.025-0.115-0.071-0.199-0.137-0.252c-0.066-0.054-0.146-0.081-0.239-0.081c-0.132,0-0.317,0.056-0.553,0.167L32.029,200.918z
					"/>
				<path d="M37.194,206.434c0.167,0,0.308,0.058,0.422,0.174c0.114,0.116,0.171,0.256,0.171,0.42s-0.058,0.304-0.174,0.42
					c-0.116,0.116-0.256,0.174-0.42,0.174s-0.304-0.058-0.42-0.174c-0.116-0.116-0.174-0.256-0.174-0.42
					c0-0.167,0.058-0.309,0.174-0.423C36.89,206.491,37.03,206.434,37.194,206.434z"/>
				<path d="M43.16,200.2l-0.424,0.906h-2.218l-0.485,0.981c0.963,0.14,1.725,0.492,2.283,1.058
					c0.479,0.486,0.719,1.059,0.719,1.718c0,0.383-0.078,0.737-0.234,1.063c-0.156,0.326-0.353,0.604-0.589,0.833
					s-0.501,0.414-0.792,0.553c-0.413,0.196-0.836,0.295-1.271,0.295c-0.438,0-0.757-0.074-0.956-0.222
					c-0.199-0.148-0.299-0.312-0.299-0.49c0-0.1,0.041-0.188,0.123-0.265s0.185-0.115,0.31-0.115c0.092,0,0.173,0.015,0.243,0.043
					s0.188,0.102,0.355,0.219c0.27,0.186,0.543,0.28,0.821,0.283c0.421,0,0.791-0.158,1.109-0.476s0.478-0.703,0.478-1.158
					c0-0.441-0.142-0.852-0.426-1.233c-0.284-0.382-0.675-0.677-1.175-0.885c-0.392-0.161-0.925-0.254-1.601-0.279l1.404-2.828
					H43.16z"/>
				<path d="M44.259,203.886c0-0.829,0.126-1.543,0.378-2.142s0.587-1.044,1.004-1.337c0.324-0.232,0.658-0.349,1.004-0.349
					c0.562,0,1.065,0.284,1.512,0.853c0.558,0.704,0.836,1.658,0.836,2.862c0,0.843-0.123,1.56-0.367,2.15
					c-0.245,0.589-0.557,1.018-0.937,1.283c-0.38,0.267-0.746,0.399-1.099,0.399c-0.698,0-1.279-0.409-1.744-1.228
					C44.456,205.689,44.259,204.858,44.259,203.886z M45.306,204.02c0,0.999,0.125,1.814,0.376,2.445
					c0.207,0.532,0.515,0.797,0.925,0.797c0.196,0,0.399-0.086,0.61-0.26c0.21-0.173,0.37-0.463,0.479-0.869
					c0.167-0.613,0.25-1.479,0.25-2.595c0-0.828-0.087-1.518-0.261-2.071c-0.131-0.41-0.299-0.701-0.506-0.872
					c-0.149-0.118-0.329-0.177-0.539-0.177c-0.247,0-0.466,0.109-0.659,0.326c-0.261,0.296-0.439,0.762-0.534,1.397
					S45.306,203.403,45.306,204.02z"/>
			</g>
			<path fill="none" stroke="#000000" stroke-width="0.5994" stroke-linecap="square" stroke-miterlimit="10" d="M54.333,166.721h6"
				/>
			<path fill="none" stroke="#000000" stroke-width="0.5994" stroke-linecap="square" stroke-miterlimit="10" d="M318.353,166.721
				h6.002"/>
			<g>
				<path d="M32.029,163.754l1.775-0.859h0.178v6.141c0,0.406,0.017,0.658,0.051,0.758s0.105,0.176,0.213,0.229
					c0.107,0.054,0.327,0.084,0.658,0.091v0.203H32.17v-0.203c0.339-0.007,0.558-0.036,0.657-0.088
					c0.099-0.052,0.168-0.121,0.207-0.208c0.039-0.087,0.058-0.348,0.058-0.782v-3.922c0-0.53-0.018-0.87-0.054-1.021
					c-0.025-0.115-0.071-0.199-0.137-0.252c-0.066-0.054-0.146-0.081-0.238-0.081c-0.133,0-0.317,0.056-0.553,0.167L32.029,163.754z
					"/>
				<path d="M37.195,169.27c0.167,0,0.308,0.058,0.422,0.174c0.114,0.116,0.171,0.256,0.171,0.42s-0.058,0.304-0.174,0.42
					c-0.116,0.116-0.256,0.174-0.42,0.174s-0.304-0.058-0.42-0.174c-0.116-0.116-0.174-0.256-0.174-0.42
					c0-0.167,0.058-0.309,0.174-0.423C36.891,169.327,37.031,169.27,37.195,169.27z"/>
				<path d="M43.16,163.036l-0.424,0.906h-2.218l-0.485,0.981c0.963,0.14,1.725,0.492,2.283,1.058
					c0.479,0.486,0.719,1.059,0.719,1.718c0,0.383-0.078,0.737-0.234,1.063c-0.156,0.326-0.353,0.604-0.589,0.833
					s-0.501,0.414-0.792,0.553c-0.413,0.196-0.836,0.295-1.271,0.295c-0.438,0-0.757-0.074-0.956-0.222
					c-0.199-0.148-0.299-0.312-0.299-0.49c0-0.1,0.041-0.188,0.123-0.265s0.185-0.115,0.31-0.115c0.092,0,0.173,0.015,0.243,0.043
					s0.188,0.102,0.355,0.219c0.27,0.186,0.543,0.28,0.821,0.283c0.421,0,0.791-0.158,1.109-0.476s0.478-0.703,0.478-1.158
					c0-0.441-0.142-0.852-0.426-1.233c-0.284-0.382-0.675-0.677-1.175-0.885c-0.392-0.161-0.925-0.254-1.601-0.279l1.404-2.828
					H43.16z"/>
				<path d="M48.498,168.898l-0.511,1.419h-4.302v-0.203c1.268-1.151,2.16-2.092,2.677-2.822c0.517-0.729,0.776-1.396,0.776-2.002
					c0-0.457-0.142-0.832-0.426-1.126c-0.285-0.293-0.625-0.44-1.021-0.44c-0.36,0-0.683,0.104-0.969,0.31s-0.498,0.509-0.634,0.909
					h-0.2c0.09-0.659,0.321-1.165,0.694-1.518c0.372-0.353,0.837-0.529,1.395-0.529c0.594,0,1.089,0.189,1.487,0.566
					c0.397,0.378,0.596,0.823,0.596,1.337c0,0.367-0.086,0.735-0.259,1.104c-0.266,0.58-0.698,1.194-1.294,1.842
					c-0.896,0.972-1.449,1.553-1.659,1.745h1.892c0.385,0,0.654-0.014,0.81-0.043c0.155-0.028,0.294-0.087,0.419-0.175
					c0.125-0.087,0.233-0.212,0.326-0.373H48.498z"/>
			</g>
			<path fill="none" stroke="#000000" stroke-width="0.5994" stroke-linecap="square" stroke-miterlimit="10" d="M54.333,129.557h6"
				/>
			<path fill="none" stroke="#000000" stroke-width="0.5994" stroke-linecap="square" stroke-miterlimit="10" d="M318.353,129.557
				h6.002"/>
			<g>
				<path d="M32.029,126.591l1.775-0.859h0.178v6.141c0,0.406,0.017,0.658,0.051,0.758s0.105,0.176,0.213,0.229
					c0.107,0.054,0.327,0.084,0.658,0.091v0.203H32.17v-0.203c0.339-0.007,0.558-0.036,0.657-0.088
					c0.099-0.052,0.168-0.121,0.207-0.208c0.039-0.087,0.058-0.348,0.058-0.782v-3.922c0-0.53-0.018-0.87-0.054-1.021
					c-0.025-0.115-0.071-0.199-0.137-0.252c-0.066-0.054-0.146-0.081-0.238-0.081c-0.133,0-0.317,0.056-0.553,0.167L32.029,126.591z
					"/>
				<path d="M37.195,132.107c0.167,0,0.308,0.058,0.422,0.174c0.114,0.116,0.171,0.256,0.171,0.42s-0.058,0.304-0.174,0.42
					c-0.116,0.116-0.256,0.174-0.42,0.174s-0.304-0.058-0.42-0.174c-0.116-0.116-0.174-0.256-0.174-0.42
					c0-0.167,0.058-0.309,0.174-0.423C36.891,132.164,37.031,132.107,37.195,132.107z"/>
				<path d="M43.16,125.873l-0.424,0.906h-2.218l-0.485,0.981c0.963,0.14,1.725,0.492,2.283,1.058
					c0.479,0.486,0.719,1.059,0.719,1.718c0,0.383-0.078,0.737-0.234,1.063c-0.156,0.326-0.353,0.604-0.589,0.833
					s-0.501,0.414-0.792,0.553c-0.413,0.196-0.836,0.295-1.271,0.295c-0.438,0-0.757-0.074-0.956-0.222
					c-0.199-0.148-0.299-0.312-0.299-0.49c0-0.1,0.041-0.188,0.123-0.265s0.185-0.115,0.31-0.115c0.092,0,0.173,0.015,0.243,0.043
					s0.188,0.102,0.355,0.219c0.27,0.186,0.543,0.28,0.821,0.283c0.421,0,0.791-0.158,1.109-0.476s0.478-0.703,0.478-1.158
					c0-0.441-0.142-0.852-0.426-1.233c-0.284-0.382-0.675-0.677-1.175-0.885c-0.392-0.161-0.925-0.254-1.601-0.279l1.404-2.828
					H43.16z"/>
				<path d="M48.591,130.466v0.766h-0.984v1.922h-0.891v-1.922h-3.094v-0.69l3.391-4.81h0.594v4.734H48.591z M46.716,130.466v-3.608
					l-2.565,3.608H46.716z"/>
			</g>
			<path fill="none" stroke="#000000" stroke-width="0.5994" stroke-linecap="square" stroke-miterlimit="10" d="M54.333,92.394h6"
				/>
			<path fill="none" stroke="#000000" stroke-width="0.5994" stroke-linecap="square" stroke-miterlimit="10" d="M318.353,92.394
				h6.002"/>
			<g>
				<path d="M32.029,89.428l1.775-0.859h0.178v6.141c0,0.406,0.017,0.658,0.051,0.758s0.105,0.176,0.213,0.229
					c0.107,0.054,0.327,0.084,0.658,0.091v0.203H32.17v-0.203c0.339-0.007,0.558-0.036,0.657-0.088
					c0.099-0.052,0.168-0.121,0.207-0.208c0.039-0.087,0.058-0.348,0.058-0.782v-3.922c0-0.53-0.018-0.87-0.054-1.021
					c-0.025-0.115-0.071-0.199-0.137-0.252c-0.066-0.054-0.146-0.081-0.238-0.081c-0.133,0-0.317,0.056-0.553,0.167L32.029,89.428z"
					/>
				<path d="M37.195,94.944c0.167,0,0.308,0.058,0.422,0.174c0.114,0.116,0.171,0.256,0.171,0.42s-0.058,0.304-0.174,0.42
					c-0.116,0.116-0.256,0.174-0.42,0.174s-0.304-0.058-0.42-0.174c-0.116-0.116-0.174-0.256-0.174-0.42
					c0-0.167,0.058-0.309,0.174-0.423C36.891,95.001,37.031,94.944,37.195,94.944z"/>
				<path d="M43.16,88.709l-0.424,0.906h-2.218l-0.485,0.981c0.963,0.14,1.725,0.492,2.283,1.058
					c0.479,0.486,0.719,1.059,0.719,1.718c0,0.383-0.078,0.737-0.234,1.063c-0.156,0.326-0.353,0.604-0.589,0.833
					s-0.501,0.414-0.792,0.553c-0.413,0.196-0.836,0.295-1.271,0.295c-0.438,0-0.757-0.074-0.956-0.222
					c-0.199-0.148-0.299-0.312-0.299-0.49c0-0.1,0.041-0.188,0.123-0.265s0.185-0.115,0.31-0.115c0.092,0,0.173,0.015,0.243,0.043
					s0.188,0.102,0.355,0.219c0.27,0.186,0.543,0.28,0.821,0.283c0.421,0,0.791-0.158,1.109-0.476s0.478-0.703,0.478-1.158
					c0-0.441-0.142-0.852-0.426-1.233c-0.284-0.382-0.675-0.677-1.175-0.885c-0.392-0.161-0.925-0.254-1.601-0.279l1.404-2.828
					H43.16z"/>
				<path d="M48.388,88.569v0.203c-0.475,0.046-0.863,0.14-1.163,0.281c-0.3,0.141-0.597,0.355-0.891,0.645
					s-0.536,0.611-0.729,0.967c-0.192,0.354-0.354,0.777-0.484,1.266c0.52-0.355,1.042-0.533,1.565-0.533
					c0.501,0,0.937,0.2,1.305,0.601c0.368,0.4,0.552,0.915,0.552,1.544c0,0.608-0.185,1.162-0.556,1.663
					c-0.446,0.608-1.036,0.912-1.77,0.912c-0.5,0-0.925-0.164-1.274-0.493c-0.684-0.64-1.025-1.469-1.025-2.487
					c0-0.65,0.131-1.268,0.393-1.854c0.262-0.586,0.636-1.105,1.123-1.56c0.486-0.454,0.952-0.759,1.397-0.917
					c0.445-0.157,0.86-0.236,1.244-0.236H48.388z M45.029,92.322c-0.063,0.482-0.094,0.872-0.094,1.169
					c0,0.344,0.064,0.716,0.193,1.119s0.32,0.721,0.573,0.958c0.185,0.168,0.409,0.252,0.673,0.252c0.315,0,0.597-0.146,0.845-0.439
					c0.248-0.293,0.372-0.712,0.372-1.256c0-0.611-0.124-1.14-0.37-1.587c-0.247-0.447-0.597-0.671-1.05-0.671
					c-0.138,0-0.286,0.029-0.443,0.086S45.337,92.132,45.029,92.322z"/>
			</g>
			<path fill="none" stroke="#000000" stroke-width="0.5994" stroke-linecap="square" stroke-miterlimit="10" d="M54.333,55.231h6"
				/>
			<path fill="none" stroke="#000000" stroke-width="0.5994" stroke-linecap="square" stroke-miterlimit="10" d="M318.353,55.231
				h6.002"/>
			<g>
				<path d="M32.029,52.265l1.775-0.859h0.178v6.141c0,0.406,0.017,0.658,0.051,0.758s0.105,0.176,0.213,0.229
					c0.107,0.053,0.327,0.083,0.658,0.091v0.203H32.17v-0.203c0.339-0.007,0.558-0.037,0.657-0.088
					c0.099-0.051,0.168-0.121,0.207-0.208c0.039-0.087,0.058-0.348,0.058-0.782v-3.922c0-0.53-0.018-0.871-0.054-1.021
					c-0.025-0.114-0.071-0.199-0.137-0.252c-0.066-0.054-0.146-0.081-0.238-0.081c-0.133,0-0.317,0.056-0.553,0.167L32.029,52.265z"
					/>
				<path d="M37.195,57.78c0.167,0,0.308,0.058,0.422,0.174s0.171,0.256,0.171,0.42s-0.058,0.304-0.174,0.42
					c-0.116,0.116-0.256,0.174-0.42,0.174s-0.304-0.058-0.42-0.174c-0.116-0.116-0.174-0.256-0.174-0.42
					c0-0.167,0.058-0.308,0.174-0.422C36.891,57.837,37.031,57.78,37.195,57.78z"/>
				<path d="M43.16,51.546l-0.424,0.906h-2.218l-0.485,0.981c0.963,0.14,1.725,0.492,2.283,1.058
					c0.479,0.487,0.719,1.06,0.719,1.718c0,0.383-0.078,0.737-0.234,1.063c-0.156,0.325-0.353,0.603-0.589,0.832
					s-0.501,0.413-0.792,0.553c-0.413,0.197-0.836,0.295-1.271,0.295c-0.438,0-0.757-0.074-0.956-0.222
					c-0.199-0.147-0.299-0.311-0.299-0.49c0-0.1,0.041-0.188,0.123-0.265s0.185-0.115,0.31-0.115c0.092,0,0.173,0.014,0.243,0.043
					s0.188,0.102,0.355,0.219c0.27,0.186,0.543,0.28,0.821,0.283c0.421,0,0.791-0.159,1.109-0.476s0.478-0.704,0.478-1.159
					c0-0.44-0.142-0.852-0.426-1.233c-0.284-0.381-0.675-0.676-1.175-0.884c-0.392-0.161-0.925-0.255-1.601-0.28l1.404-2.828H43.16z
					"/>
				<path d="M45.574,55.159c-0.574-0.471-0.943-0.85-1.109-1.135c-0.166-0.286-0.249-0.582-0.249-0.889
					c0-0.471,0.183-0.877,0.549-1.218s0.853-0.511,1.459-0.511c0.589,0,1.063,0.159,1.421,0.477s0.539,0.68,0.539,1.086
					c0,0.271-0.098,0.548-0.292,0.83s-0.601,0.614-1.218,0.996c0.633,0.486,1.052,0.869,1.257,1.148
					c0.273,0.365,0.41,0.749,0.41,1.153c0,0.512-0.196,0.949-0.588,1.313s-0.906,0.544-1.543,0.544
					c-0.694,0-1.235-0.216-1.624-0.649c-0.309-0.347-0.464-0.727-0.464-1.138c0-0.322,0.109-0.641,0.327-0.958
					C44.667,55.891,45.042,55.542,45.574,55.159z M45.828,55.363c-0.298,0.25-0.519,0.522-0.662,0.816
					c-0.144,0.294-0.215,0.613-0.215,0.956c0,0.46,0.126,0.829,0.379,1.106c0.253,0.276,0.575,0.415,0.965,0.415
					c0.387,0,0.698-0.109,0.931-0.327s0.35-0.481,0.35-0.792c0-0.257-0.068-0.487-0.204-0.691
					C47.117,56.467,46.602,55.973,45.828,55.363z M46.421,54.584c0.434-0.387,0.709-0.692,0.825-0.917s0.174-0.478,0.174-0.761
					c0-0.376-0.106-0.671-0.317-0.885c-0.212-0.213-0.5-0.32-0.867-0.32c-0.366,0-0.664,0.106-0.893,0.317
					c-0.23,0.211-0.345,0.458-0.345,0.742c0,0.187,0.047,0.373,0.142,0.56c0.095,0.187,0.229,0.363,0.404,0.532L46.421,54.584z"/>
			</g>
			<g>
				<defs>
					<path id="XMLID_1_" d="M54.333,18.667h270.021v185.817H54.333V18.667z"/>
				</defs>
				<clipPath id="XMLID_2_">
					<use xlink:href="#XMLID_1_" />
				</clipPath>
				<path clip-path="url(#XMLID_2_)" fill="none" stroke="#FF0000" stroke-linecap="square" stroke-miterlimit="10" d="
					M59.333,18.667l0.831,8.754l1.794,17.332l2.018,14.651l2.019,12.328l1.794,10.542l2.019,9.112l1.794,8.041l2.019,6.968
					l2.019,6.253l1.794,5.539l2.019,5.003l1.794,4.466l2.019,4.109l2.019,3.574l1.794,3.395l2.019,3.038l1.794,2.858l2.019,2.501
					l2.019,2.323l1.794,2.323l2.019,1.965l1.794,1.966l2.019,1.787l2.019,1.608l1.794,1.608l2.019,1.429l1.794,1.251l2.018,1.25
					l2.019,1.251l1.794,1.072l2.019,1.072l1.794,1.072l2.018,0.894l2.019,0.894l1.794,0.893l2.019,0.894l1.794,0.714l2.019,0.894
					l2.018,0.715l1.794,0.536l2.019,0.715l1.794,0.715l2.019,0.536l2.018,0.536l1.794,0.536l2.018,0.536l1.794,0.537l2.019,0.536
					l2.018,0.536l1.794,0.357l2.018,0.536l1.795,0.536l2.018,0.357l2.018,0.357l1.794,0.357l2.018,0.536l1.795,0.357l2.018,0.357
					l2.018,0.357l1.794,0.357l2.018,0.357l1.795,0.357l2.018,0.357l2.019,0.179l1.794,0.357l2.019,0.357l1.794,0.357l2.018,0.179
					l2.019,0.357l1.794,0.357l2.019,0.179l1.794,0.357l2.018,0.179l2.019,0.357l1.794,0.357l2.019,0.178l1.794,0.357l2.019,0.179
					l2.018,0.178l1.794,0.357l2.019,0.179l1.794,0.357l2.019,0.179l2.018,0.179l1.794,0.357l2.019,0.179l1.794,0.357l2.019,0.179
					l2.018,0.179l1.794,0.357l2.019,0.179l1.794,0.179l2.019,0.178l2.018,0.358l1.794,0.179l2.019,0.178l1.794,0.357l2.018,0.179
					l2.018,0.179l1.795,0.179l2.018,0.357l1.794,0.179l2.018,0.179l2.018,0.179l1.795,0.357l2.018,0.179l1.794,0.179l2.018,0.179
					l2.019,0.357l1.794,0.179l2.018,0.179l1.794,0.179l2.018,0.357l2.019,0.178l1.794,0.179l2.018,0.357l1.794,0.179l2.019,0.179
					l2.019,0.179l1.794,0.357l2.019,0.179l1.794,0.179l2.019,0.178l2.019,0.357l1.794,0.179l2.019,0.179l1.794,0.179l2.019,0.357
					l2.019,0.179l1.794,0.179l2.019,0.357l1.794,0.178l2.019,0.179l2.019,0.358l1.794,0.178l2.019,0.179l1.794,0.179l2.019,0.357"/>
			</g>
			<path fill="none" stroke="#000000" stroke-linecap="square" stroke-miterlimit="10" d="M54.333,18.667h270.021v185.817H54.333
				V18.667"/>
		</g>
		<g>
			<path d="M20.333,152.698v2.134l-3.719,2.706c0.008,0.196,0.012,0.355,0.012,0.479c0,0.05-0.001,0.104-0.003,0.161
				s-0.005,0.117-0.009,0.179h2.313c0.499,0,0.81-0.054,0.93-0.164c0.171-0.148,0.257-0.371,0.257-0.667v-0.31h0.219v3.406h-0.219
				v-0.298c0-0.335-0.109-0.575-0.328-0.719c-0.121-0.082-0.408-0.123-0.86-0.123h-5.141c-0.499,0-0.809,0.055-0.93,0.164
				c-0.171,0.152-0.257,0.378-0.257,0.678v0.298H12.38v-2.896c0-0.844,0.062-1.467,0.185-1.868c0.124-0.4,0.35-0.741,0.681-1.02
				s0.725-0.419,1.183-0.419c0.489,0,0.914,0.159,1.274,0.477c0.359,0.317,0.614,0.809,0.763,1.475l2.275-1.648
				c0.524-0.375,0.873-0.698,1.045-0.968c0.173-0.27,0.282-0.622,0.329-1.056H20.333z M16.24,158.356
				c0-0.074,0.001-0.139,0.003-0.194c0.002-0.055,0.003-0.1,0.003-0.135c0-0.759-0.164-1.332-0.491-1.718s-0.744-0.579-1.25-0.579
				c-0.495,0-0.896,0.156-1.206,0.467c-0.31,0.311-0.465,0.723-0.465,1.236c0,0.227,0.042,0.535,0.125,0.922H16.24z"/>
			<path d="M16.99,151.531c0.79,0.004,1.409-0.19,1.858-0.581c0.449-0.391,0.673-0.85,0.673-1.378c0-0.352-0.095-0.658-0.286-0.918
				c-0.19-0.26-0.522-0.478-0.996-0.654l0.117-0.188c0.543,0.082,1.035,0.321,1.474,0.716c0.439,0.395,0.659,0.89,0.659,1.484
				c0,0.646-0.25,1.198-0.752,1.657c-0.501,0.459-1.175,0.689-2.021,0.689c-0.917,0-1.632-0.236-2.145-0.707s-0.77-1.063-0.77-1.775
				c0-0.602,0.198-1.097,0.595-1.484s0.928-0.581,1.592-0.581V151.531z M16.646,151.531v-2.5c-0.342,0.02-0.583,0.061-0.723,0.124
				c-0.217,0.099-0.388,0.245-0.513,0.439c-0.124,0.195-0.187,0.398-0.187,0.61c0,0.326,0.125,0.618,0.376,0.875
				S16.199,151.488,16.646,151.531z"/>
			<path d="M15.38,145.012h3.516c0.505,0,0.824-0.055,0.958-0.165c0.173-0.145,0.26-0.339,0.26-0.582v-0.488h0.219v3.219h-0.219
				v-0.242c0-0.157-0.039-0.301-0.118-0.431s-0.186-0.219-0.319-0.269c-0.134-0.049-0.395-0.074-0.781-0.074H15.38v1.047h-0.422
				v-1.047h-0.352c-0.535,0-0.988-0.086-1.359-0.258s-0.671-0.436-0.899-0.79s-0.343-0.753-0.343-1.196
				c0-0.411,0.132-0.789,0.396-1.134c0.175-0.227,0.371-0.341,0.589-0.341c0.116,0,0.226,0.051,0.329,0.153
				c0.103,0.102,0.154,0.212,0.154,0.329c0,0.09-0.032,0.185-0.096,0.285c-0.064,0.1-0.202,0.222-0.413,0.367
				s-0.354,0.278-0.428,0.399c-0.073,0.122-0.11,0.257-0.11,0.406c0,0.18,0.048,0.333,0.144,0.458
				c0.096,0.125,0.244,0.216,0.445,0.271s0.72,0.082,1.556,0.082h0.387v-1.391h0.422V145.012z"/>
			<path d="M14.802,141.527h1.215c-0.81-0.449-1.215-0.909-1.215-1.382c0-0.214,0.066-0.392,0.198-0.533
				c0.132-0.14,0.284-0.21,0.457-0.21c0.154,0,0.284,0.051,0.39,0.152c0.106,0.102,0.159,0.223,0.159,0.364
				c0,0.137-0.067,0.29-0.203,0.459c-0.135,0.17-0.203,0.295-0.203,0.377c0,0.07,0.039,0.146,0.117,0.228
				c0.161,0.175,0.425,0.357,0.793,0.544h2.574c0.296,0,0.52-0.038,0.671-0.113c0.105-0.052,0.191-0.143,0.259-0.274
				c0.068-0.131,0.102-0.32,0.102-0.566h0.219v2.766h-0.219c0-0.273-0.043-0.477-0.129-0.609c-0.063-0.098-0.163-0.166-0.3-0.205
				c-0.066-0.02-0.256-0.029-0.57-0.029h-2.078c-0.62,0-0.988,0.013-1.106,0.038s-0.205,0.073-0.259,0.141
				c-0.055,0.069-0.082,0.154-0.082,0.256c0,0.122,0.029,0.259,0.088,0.412l-0.219,0.059l-0.656-1.628V141.527z"/>
			<path d="M19.551,136.074c0.429,0.55,0.677,0.896,0.745,1.036c0.098,0.211,0.147,0.435,0.147,0.673
				c0,0.371-0.127,0.676-0.381,0.916c-0.254,0.24-0.589,0.36-1.003,0.36c-0.262,0-0.489-0.059-0.68-0.176
				c-0.266-0.16-0.517-0.438-0.751-0.833s-0.52-1.054-0.856-1.975H16.56c-0.534,0-0.901,0.084-1.1,0.253
				c-0.199,0.169-0.299,0.415-0.299,0.736c0,0.245,0.066,0.439,0.2,0.583c0.133,0.147,0.286,0.221,0.458,0.221l0.34-0.012
				c0.18,0,0.319,0.046,0.417,0.139c0.098,0.093,0.146,0.214,0.146,0.364c0,0.146-0.051,0.265-0.153,0.358s-0.241,0.139-0.417,0.139
				c-0.337,0-0.646-0.172-0.928-0.516s-0.423-0.826-0.423-1.447c0-0.477,0.08-0.867,0.239-1.172c0.121-0.23,0.31-0.4,0.566-0.51
				c0.167-0.07,0.51-0.105,1.027-0.105h1.816c0.51,0,0.823-0.01,0.937-0.029c0.115-0.02,0.192-0.052,0.23-0.097
				c0.039-0.045,0.059-0.097,0.059-0.155c0-0.063-0.014-0.118-0.041-0.165c-0.051-0.082-0.193-0.241-0.428-0.476h0.328
				c0.583,0.438,0.875,0.857,0.875,1.256c0,0.192-0.065,0.345-0.195,0.458C20.086,136.011,19.865,136.07,19.551,136.074z
				 M19.17,136.074h-2.04c0.234,0.593,0.399,0.976,0.497,1.149c0.171,0.311,0.351,0.533,0.538,0.666
				c0.187,0.134,0.392,0.201,0.613,0.201c0.281,0,0.514-0.084,0.699-0.253c0.185-0.169,0.277-0.363,0.277-0.583
				C19.755,136.954,19.561,136.561,19.17,136.074z"/>
			<path d="M18.275,129.179c0.716,0.146,1.265,0.43,1.645,0.854c0.38,0.424,0.57,0.894,0.57,1.408c0,0.613-0.256,1.146-0.768,1.602
				c-0.511,0.456-1.202,0.683-2.073,0.683c-0.843,0-1.528-0.252-2.056-0.756c-0.527-0.504-0.791-1.109-0.791-1.815
				c0-0.53,0.14-0.965,0.418-1.307s0.567-0.512,0.867-0.512c0.147,0,0.268,0.048,0.359,0.145s0.137,0.23,0.137,0.403
				c0,0.232-0.075,0.404-0.225,0.516c-0.083,0.072-0.24,0.119-0.473,0.141s-0.41,0.101-0.532,0.238
				c-0.118,0.137-0.177,0.328-0.177,0.571c0,0.393,0.145,0.708,0.435,0.948c0.383,0.318,0.89,0.477,1.52,0.477
				c0.642,0,1.208-0.158,1.7-0.474c0.491-0.316,0.736-0.743,0.736-1.281c0-0.385-0.129-0.73-0.386-1.037
				c-0.181-0.216-0.51-0.426-0.989-0.63L18.275,129.179z"/>
			<path d="M13.193,126.879h1.766v-1.256h0.406v1.256h3.488c0.349,0,0.583-0.05,0.705-0.151c0.121-0.101,0.182-0.23,0.182-0.388
				c0-0.13-0.04-0.256-0.119-0.379s-0.196-0.217-0.35-0.285v-0.234c0.384,0.138,0.672,0.333,0.866,0.585
				c0.194,0.252,0.291,0.512,0.291,0.78c0,0.181-0.05,0.359-0.15,0.532s-0.243,0.301-0.429,0.384
				c-0.186,0.083-0.473,0.124-0.861,0.124h-3.622v0.844h-0.191c-0.086-0.213-0.231-0.432-0.436-0.655s-0.448-0.422-0.729-0.597
				c-0.148-0.089-0.42-0.214-0.815-0.373V126.879z"/>
			<path d="M11.99,123.741c0-0.164,0.058-0.303,0.173-0.418s0.254-0.173,0.418-0.173c0.164,0,0.304,0.058,0.421,0.173
				c0.117,0.115,0.176,0.254,0.176,0.418c0,0.164-0.059,0.304-0.176,0.421c-0.117,0.117-0.257,0.175-0.421,0.175
				c-0.164,0-0.303-0.057-0.418-0.172S11.99,123.909,11.99,123.741z M14.802,123.26h4.313c0.335,0,0.559-0.023,0.67-0.071
				c0.111-0.048,0.193-0.119,0.248-0.212s0.082-0.265,0.082-0.513h0.219v2.594h-0.219c0-0.264-0.025-0.441-0.076-0.532
				s-0.134-0.163-0.251-0.216c-0.117-0.053-0.341-0.08-0.673-0.08h-2.047c-0.588,0-0.969,0.018-1.142,0.053
				c-0.126,0.027-0.214,0.071-0.263,0.129c-0.049,0.059-0.073,0.139-0.073,0.241c0,0.11,0.029,0.243,0.088,0.4l-0.219,0.082
				l-0.656-1.617V123.26z"/>
			<path d="M14.958,122.032v-2.518h0.219v0.164c0,0.153,0.037,0.269,0.111,0.348s0.174,0.119,0.299,0.119
				c0.137,0,0.299-0.041,0.486-0.122l2.965-1.242l-3.076-1.242c-0.219-0.09-0.385-0.135-0.498-0.135c-0.055,0-0.1,0.016-0.135,0.047
				c-0.059,0.043-0.099,0.098-0.12,0.164s-0.032,0.202-0.032,0.405h-0.219v-1.756h0.219c0.016,0.204,0.058,0.344,0.125,0.422
				c0.119,0.137,0.318,0.26,0.596,0.37l4.592,1.871v0.271l-4.525,1.896c-0.211,0.086-0.363,0.168-0.456,0.247
				c-0.092,0.078-0.169,0.178-0.232,0.299c-0.035,0.066-0.068,0.198-0.1,0.393H14.958z"/>
			<path d="M16.99,114.854c0.79,0.004,1.409-0.189,1.858-0.581s0.673-0.851,0.673-1.378c0-0.352-0.095-0.658-0.286-0.918
				s-0.522-0.478-0.996-0.654l0.117-0.188c0.543,0.083,1.035,0.321,1.474,0.716c0.439,0.395,0.659,0.89,0.659,1.484
				c0,0.646-0.25,1.198-0.752,1.658c-0.501,0.459-1.175,0.689-2.021,0.689c-0.917,0-1.632-0.235-2.145-0.707s-0.77-1.063-0.77-1.775
				c0-0.603,0.198-1.097,0.595-1.484s0.928-0.581,1.592-0.581V114.854z M16.646,114.854v-2.5c-0.342,0.02-0.583,0.061-0.723,0.124
				c-0.217,0.098-0.388,0.245-0.513,0.439c-0.124,0.194-0.187,0.398-0.187,0.61c0,0.327,0.125,0.619,0.376,0.876
				S16.199,114.811,16.646,114.854z"/>
			<path d="M11.99,106.063c0-0.164,0.058-0.303,0.173-0.418s0.254-0.173,0.418-0.173c0.164,0,0.304,0.058,0.421,0.173
				c0.117,0.115,0.176,0.254,0.176,0.418c0,0.164-0.059,0.304-0.176,0.421c-0.117,0.117-0.257,0.175-0.421,0.175
				c-0.164,0-0.303-0.057-0.418-0.172S11.99,106.23,11.99,106.063z M14.802,105.581h4.313c0.335,0,0.559-0.023,0.67-0.071
				c0.111-0.048,0.193-0.119,0.248-0.212s0.082-0.265,0.082-0.513h0.219v2.594h-0.219c0-0.264-0.025-0.441-0.076-0.532
				s-0.134-0.163-0.251-0.216c-0.117-0.053-0.341-0.08-0.673-0.08h-2.047c-0.588,0-0.969,0.018-1.142,0.053
				c-0.126,0.027-0.214,0.071-0.263,0.129c-0.049,0.059-0.073,0.139-0.073,0.241c0,0.11,0.029,0.243,0.088,0.4l-0.219,0.082
				l-0.656-1.617V105.581z"/>
			<path d="M15.923,102.525c-0.747-0.629-1.121-1.229-1.121-1.799c0-0.293,0.073-0.545,0.22-0.756s0.388-0.379,0.724-0.504
				c0.234-0.086,0.594-0.129,1.078-0.129h2.291c0.339,0,0.569-0.028,0.69-0.083c0.098-0.043,0.173-0.113,0.228-0.21
				s0.082-0.275,0.082-0.535h0.219v2.672h-0.219v-0.112c0-0.252-0.038-0.429-0.114-0.529c-0.076-0.101-0.188-0.17-0.336-0.21
				c-0.059-0.016-0.242-0.023-0.55-0.023h-2.208c-0.491,0-0.847,0.063-1.068,0.19s-0.333,0.34-0.333,0.641
				c0,0.464,0.255,0.927,0.766,1.388h2.844c0.363,0,0.587-0.021,0.673-0.065c0.113-0.055,0.195-0.13,0.248-0.226
				c0.053-0.096,0.079-0.291,0.079-0.584h0.219v2.641h-0.219v-0.115c0-0.268-0.069-0.448-0.208-0.542s-0.403-0.141-0.792-0.141
				H17.13c-0.645,0-1.037,0.015-1.178,0.044c-0.141,0.03-0.236,0.075-0.287,0.136c-0.051,0.061-0.076,0.142-0.076,0.244
				c0,0.11,0.029,0.242,0.088,0.395l-0.219,0.088l-0.656-1.623v-0.252H15.923z"/>
			<path d="M19.719,94.284c0.277,0.262,0.475,0.517,0.593,0.767s0.178,0.52,0.178,0.808c0,0.586-0.245,1.097-0.734,1.535
				c-0.489,0.437-1.118,0.656-1.887,0.656s-1.472-0.242-2.109-0.726c-0.638-0.484-0.957-1.107-0.957-1.868
				c0-0.473,0.157-0.863,0.471-1.171h-1.018c-0.609,0-0.983,0.015-1.123,0.043c-0.14,0.029-0.234,0.075-0.285,0.137
				s-0.076,0.14-0.076,0.232c0,0.101,0.031,0.235,0.094,0.402l-0.219,0.076l-0.656-1.596v-0.263h6.219c0.621,0,1-0.015,1.137-0.044
				c0.137-0.029,0.233-0.076,0.287-0.14s0.082-0.139,0.082-0.224c0-0.104-0.033-0.244-0.1-0.419l0.219-0.064l0.656,1.59v0.269
				H19.719z M19.31,94.284h-2.741c-0.27,0.023-0.514,0.093-0.731,0.209c-0.218,0.116-0.383,0.27-0.494,0.462
				s-0.167,0.378-0.167,0.561c0,0.341,0.154,0.645,0.461,0.912c0.405,0.353,0.997,0.529,1.775,0.529c0.787,0,1.39-0.17,1.808-0.511
				c0.419-0.341,0.628-0.72,0.628-1.139C19.849,94.954,19.669,94.613,19.31,94.284z"/>
			<path d="M16.99,91.168c0.79,0.004,1.409-0.19,1.858-0.581c0.449-0.391,0.673-0.85,0.673-1.378c0-0.352-0.095-0.658-0.286-0.918
				c-0.19-0.26-0.522-0.478-0.996-0.654l0.117-0.188c0.543,0.082,1.035,0.321,1.474,0.716c0.439,0.395,0.659,0.89,0.659,1.484
				c0,0.646-0.25,1.198-0.752,1.657c-0.501,0.459-1.175,0.689-2.021,0.689c-0.917,0-1.632-0.236-2.145-0.707s-0.77-1.063-0.77-1.775
				c0-0.602,0.198-1.097,0.595-1.484s0.928-0.581,1.592-0.581V91.168z M16.646,91.168v-2.5c-0.342,0.02-0.583,0.061-0.723,0.124
				c-0.217,0.099-0.388,0.245-0.513,0.439c-0.124,0.195-0.187,0.398-0.187,0.61c0,0.326,0.125,0.618,0.376,0.875
				S16.199,91.125,16.646,91.168z"/>
			<path d="M14.958,86.946v-2.5h0.219c0,0.162,0.028,0.275,0.083,0.34c0.056,0.065,0.129,0.097,0.22,0.097
				c0.096,0,0.242-0.071,0.439-0.212c0.063-0.044,0.16-0.109,0.292-0.197l0.593-0.376l-0.602-0.445
				c-0.385-0.285-0.629-0.426-0.73-0.425c-0.083,0-0.152,0.033-0.209,0.1c-0.057,0.066-0.085,0.173-0.085,0.321h-0.219v-1.827h0.219
				c0.012,0.194,0.064,0.363,0.158,0.505c0.133,0.194,0.422,0.458,0.867,0.789l0.982,0.737l1.929-1.344
				c0.475-0.329,0.759-0.563,0.855-0.704c0.096-0.141,0.149-0.323,0.161-0.546h0.203v2.531H20.13c0-0.174-0.04-0.309-0.119-0.405
				c-0.055-0.073-0.128-0.11-0.22-0.11c-0.091,0-0.321,0.125-0.689,0.375l-1.141,0.787l1.154,0.867
				c0.355,0.263,0.566,0.394,0.633,0.394c0.094,0,0.179-0.044,0.255-0.133c0.076-0.088,0.118-0.221,0.126-0.398h0.203v1.75H20.13
				c-0.02-0.139-0.068-0.261-0.147-0.366c-0.113-0.147-0.403-0.395-0.87-0.744l-1.5-1.128l-1.479,1.019
				c-0.423,0.286-0.688,0.506-0.796,0.663s-0.162,0.352-0.162,0.587H14.958z"/>
			<path d="M15.923,76.171c-0.747-0.629-1.121-1.229-1.121-1.799c0-0.293,0.073-0.545,0.22-0.756s0.388-0.379,0.724-0.504
				c0.234-0.086,0.594-0.129,1.078-0.129h2.291c0.339,0,0.569-0.028,0.69-0.083c0.098-0.043,0.173-0.113,0.228-0.21
				s0.082-0.275,0.082-0.535h0.219v2.672h-0.219v-0.112c0-0.252-0.038-0.429-0.114-0.529c-0.076-0.101-0.188-0.17-0.336-0.21
				c-0.059-0.016-0.242-0.023-0.55-0.023h-2.208c-0.491,0-0.847,0.063-1.068,0.19s-0.333,0.34-0.333,0.641
				c0,0.464,0.255,0.927,0.766,1.388h2.844c0.363,0,0.587-0.021,0.673-0.065c0.113-0.055,0.195-0.13,0.248-0.226
				c0.053-0.096,0.079-0.291,0.079-0.584h0.219v2.641h-0.219v-0.115c0-0.268-0.069-0.448-0.208-0.542s-0.403-0.141-0.792-0.141
				H17.13c-0.645,0-1.037,0.015-1.178,0.044c-0.141,0.03-0.236,0.075-0.287,0.136c-0.051,0.061-0.076,0.142-0.076,0.244
				c0,0.11,0.029,0.242,0.088,0.395l-0.219,0.088l-0.656-1.623v-0.252H15.923z"/>
			<path d="M22.677,68.352h0.219c-0.297,0.593-0.645,1.087-1.044,1.483c-0.566,0.565-1.235,1.001-2.005,1.307
				c-0.771,0.306-1.569,0.459-2.398,0.459c-1.212,0-2.317-0.3-3.315-0.901c-0.999-0.601-1.713-1.383-2.144-2.349h0.25
				c0.266,0.485,0.629,0.884,1.09,1.195c0.461,0.312,1.045,0.545,1.752,0.699c0.708,0.154,1.446,0.231,2.215,0.231
				c0.836,0,1.596-0.065,2.28-0.195c0.539-0.103,0.972-0.227,1.298-0.373c0.326-0.146,0.64-0.343,0.94-0.589
				C22.117,69.073,22.404,68.75,22.677,68.352z"/>
			<path d="M16.238,64.767l4.096,1.996v1.042l-5.532-2.696l-0.512,0.101c-0.554,0.118-0.93,0.275-1.128,0.473
				c-0.198,0.198-0.297,0.418-0.297,0.661c0,0.219,0.079,0.411,0.235,0.576c0.157,0.165,0.412,0.272,0.765,0.323v0.219
				c-0.608-0.012-1.095-0.163-1.462-0.453c-0.265-0.208-0.397-0.461-0.397-0.759c0-0.263,0.104-0.488,0.31-0.677
				c0.316-0.282,0.874-0.514,1.673-0.694l4.135-0.94c0.615-0.141,1.014-0.302,1.196-0.482c0.187-0.176,0.28-0.384,0.28-0.624
				c0-0.228-0.075-0.415-0.227-0.562s-0.394-0.234-0.727-0.262v-0.219c0.102,0,0.178,0,0.228,0c0.511,0,0.922,0.126,1.234,0.379
				c0.233,0.19,0.351,0.439,0.351,0.747c0,0.272-0.115,0.516-0.345,0.729c-0.23,0.214-0.759,0.415-1.585,0.601L16.238,64.767z"/>
			<path d="M12.24,61.258h-0.25c0.293-0.597,0.639-1.093,1.038-1.489c0.57-0.562,1.24-0.995,2.008-1.301
				c0.769-0.306,1.569-0.459,2.401-0.459c1.212,0,2.317,0.299,3.316,0.898s1.713,1.383,2.143,2.352h-0.219
				c-0.27-0.485-0.634-0.885-1.093-1.198c-0.459-0.314-1.043-0.547-1.752-0.699s-1.449-0.228-2.218-0.228
				c-0.832,0-1.592,0.065-2.28,0.195c-0.539,0.099-0.971,0.222-1.295,0.37s-0.637,0.344-0.938,0.589S12.513,60.856,12.24,61.258z"/>
		</g>
		<g>
			<path d="M250.316,40.682c0.645,0.137,1.126,0.356,1.446,0.657c0.443,0.42,0.665,0.933,0.665,1.54
				c0,0.461-0.146,0.902-0.438,1.324c-0.292,0.422-0.692,0.73-1.201,0.923c-0.508,0.194-1.285,0.291-2.329,0.291h-4.377v-0.25h0.346
				c0.384,0,0.659-0.123,0.827-0.37c0.104-0.159,0.156-0.5,0.156-1.021v-5.984c0-0.575-0.065-0.938-0.196-1.089
				c-0.177-0.201-0.438-0.302-0.786-0.302h-0.346v-0.25h4.004c0.747,0,1.346,0.055,1.797,0.164c0.683,0.164,1.205,0.454,1.564,0.87
				c0.36,0.416,0.54,0.895,0.54,1.436c0,0.464-0.142,0.879-0.424,1.246S250.867,40.504,250.316,40.682z M246.724,40.305
				c0.169,0.032,0.362,0.056,0.579,0.072s0.456,0.024,0.717,0.024c0.667,0,1.168-0.071,1.504-0.215
				c0.336-0.143,0.591-0.362,0.766-0.658s0.262-0.618,0.262-0.968c0-0.54-0.221-1.001-0.663-1.383
				c-0.442-0.382-1.087-0.573-1.935-0.573c-0.456,0-0.866,0.05-1.23,0.15V40.305z M246.724,44.748
				c0.534,0.123,1.061,0.185,1.58,0.185c0.833,0,1.468-0.186,1.905-0.557s0.656-0.831,0.656-1.377c0-0.36-0.103-0.706-0.309-1.039
				c-0.206-0.333-0.53-0.595-0.974-0.786s-0.992-0.287-1.645-0.287c-0.284,0-0.526,0.005-0.727,0.014
				c-0.201,0.009-0.363,0.025-0.486,0.048V44.748z"/>
			<path d="M257.37,40.279l3.432,3.39c0.558,0.565,1.035,0.95,1.429,1.153c0.395,0.203,0.79,0.318,1.185,0.345v0.25h-4.409v-0.25
				c0.265,0,0.455-0.044,0.571-0.133s0.175-0.188,0.175-0.297s-0.022-0.207-0.065-0.294c-0.043-0.086-0.186-0.248-0.427-0.485
				l-3.204-3.165v2.984c0,0.471,0.03,0.781,0.09,0.932c0.046,0.114,0.143,0.213,0.291,0.295c0.198,0.109,0.408,0.164,0.63,0.164
				h0.318v0.25h-3.969v-0.25h0.329c0.383,0,0.662-0.112,0.835-0.336c0.109-0.146,0.164-0.498,0.164-1.055v-5.984
				c0-0.47-0.03-0.783-0.089-0.938c-0.046-0.109-0.139-0.206-0.281-0.288c-0.201-0.109-0.411-0.164-0.63-0.164h-0.329v-0.25h3.969
				v0.25h-0.318c-0.217,0-0.427,0.053-0.63,0.157c-0.143,0.073-0.242,0.183-0.297,0.329c-0.055,0.146-0.083,0.448-0.083,0.904v2.836
				c0.091-0.086,0.404-0.376,0.938-0.869c1.355-1.24,2.175-2.067,2.458-2.482c0.123-0.182,0.185-0.342,0.185-0.479
				c0-0.104-0.048-0.197-0.144-0.276c-0.096-0.08-0.258-0.12-0.486-0.12h-0.212v-0.25h3.417v0.25
				c-0.201,0.005-0.383,0.032-0.547,0.083c-0.165,0.051-0.365,0.148-0.603,0.293c-0.237,0.145-0.529,0.378-0.875,0.7
				c-0.101,0.091-0.566,0.557-1.395,1.397L257.37,40.279z"/>
			<path d="M264.708,36.151h4.965v0.251l-3.075,9.202h-0.758l2.758-8.344h-2.555c-0.516,0-0.884,0.062-1.103,0.185
				c-0.384,0.21-0.692,0.533-0.925,0.971l-0.199-0.075L264.708,36.151z"/>
			<path d="M275.924,43.127c-0.383-0.187-0.676-0.448-0.881-0.783c-0.205-0.335-0.307-0.705-0.307-1.111
				c0-0.62,0.234-1.153,0.701-1.6c0.467-0.446,1.066-0.67,1.796-0.67c0.597,0,1.115,0.146,1.553,0.438h1.327
				c0.196,0,0.31,0.006,0.342,0.017s0.055,0.031,0.068,0.057c0.027,0.041,0.041,0.113,0.041,0.217c0,0.118-0.011,0.199-0.034,0.244
				c-0.014,0.022-0.038,0.041-0.073,0.054c-0.035,0.014-0.151,0.021-0.349,0.021h-0.818c0.255,0.33,0.383,0.75,0.383,1.263
				c0,0.586-0.223,1.087-0.669,1.503s-1.045,0.625-1.796,0.625c-0.31,0-0.626-0.047-0.949-0.141
				c-0.198,0.172-0.333,0.321-0.402,0.45c-0.07,0.128-0.105,0.237-0.105,0.327c0,0.077,0.038,0.151,0.113,0.224
				s0.223,0.124,0.443,0.155c0.128,0.02,0.448,0.037,0.961,0.052c0.942,0.025,1.553,0.06,1.833,0.104
				c0.426,0.06,0.766,0.217,1.02,0.474c0.254,0.256,0.381,0.571,0.381,0.946c0,0.517-0.242,1.001-0.727,1.454
				c-0.713,0.667-1.643,1.001-2.79,1.001c-0.882,0-1.627-0.199-2.235-0.597c-0.343-0.229-0.514-0.467-0.514-0.714
				c0-0.109,0.025-0.219,0.075-0.329c0.077-0.169,0.236-0.404,0.476-0.706c0.032-0.042,0.263-0.289,0.693-0.741
				c-0.237-0.142-0.405-0.269-0.503-0.38c-0.098-0.112-0.147-0.239-0.147-0.381c0-0.159,0.065-0.347,0.195-0.562
				S275.454,43.52,275.924,43.127z M275.854,45.417c-0.209,0.232-0.367,0.449-0.474,0.65s-0.161,0.385-0.161,0.554
				c0,0.219,0.132,0.411,0.397,0.575c0.457,0.283,1.116,0.424,1.979,0.424c0.822,0,1.428-0.145,1.819-0.435
				c0.39-0.29,0.585-0.599,0.585-0.928c0-0.237-0.117-0.406-0.351-0.507c-0.238-0.101-0.71-0.16-1.417-0.178
				C277.202,45.545,276.409,45.494,275.854,45.417z M277.108,39.307c-0.336,0-0.618,0.134-0.845,0.401s-0.34,0.679-0.34,1.232
				c0,0.717,0.154,1.273,0.463,1.667c0.236,0.3,0.536,0.449,0.899,0.449c0.345,0,0.628-0.129,0.851-0.388
				c0.222-0.259,0.333-0.665,0.333-1.219c0-0.721-0.157-1.286-0.47-1.694C277.769,39.457,277.471,39.307,277.108,39.307z"/>
			<path d="M283.43,35.698v8.297c0,0.393,0.029,0.653,0.086,0.781s0.145,0.225,0.264,0.291c0.119,0.066,0.341,0.1,0.666,0.1v0.25
				h-3.094v-0.25c0.292,0,0.491-0.029,0.597-0.089s0.19-0.158,0.25-0.295c0.06-0.137,0.09-0.399,0.09-0.788v-5.656
				c0-0.711-0.016-1.148-0.048-1.312s-0.083-0.274-0.155-0.334c-0.071-0.059-0.162-0.089-0.272-0.089
				c-0.12,0-0.271,0.037-0.455,0.109l-0.117-0.25l1.878-0.766H283.43z"/>
			<path d="M288.699,44.506c-0.645,0.499-1.05,0.787-1.214,0.864c-0.247,0.114-0.511,0.171-0.79,0.171
				c-0.435,0-0.792-0.148-1.073-0.444c-0.282-0.297-0.422-0.687-0.422-1.17c0-0.305,0.068-0.569,0.206-0.793
				c0.188-0.31,0.514-0.602,0.979-0.875c0.464-0.273,1.236-0.606,2.315-0.999v-0.245c0-0.623-0.1-1.05-0.3-1.282
				c-0.199-0.231-0.49-0.348-0.872-0.348c-0.289,0-0.52,0.077-0.689,0.231c-0.174,0.155-0.262,0.332-0.262,0.532l0.014,0.395
				c0,0.209-0.054,0.371-0.16,0.484c-0.107,0.113-0.248,0.17-0.421,0.17c-0.169,0-0.307-0.059-0.414-0.178
				c-0.107-0.118-0.161-0.28-0.161-0.485c0-0.392,0.201-0.751,0.604-1.079c0.402-0.328,0.967-0.492,1.694-0.492
				c0.558,0,1.015,0.093,1.372,0.279c0.27,0.141,0.469,0.361,0.597,0.661c0.082,0.195,0.123,0.595,0.123,1.199v2.118
				c0,0.595,0.012,0.96,0.034,1.094c0.023,0.134,0.061,0.224,0.113,0.269c0.053,0.046,0.113,0.068,0.183,0.068
				c0.073,0,0.137-0.016,0.192-0.048c0.096-0.059,0.281-0.226,0.556-0.499v0.383c-0.511,0.683-0.999,1.023-1.464,1.023
				c-0.224,0-0.401-0.076-0.534-0.228C288.772,45.131,288.704,44.872,288.699,44.506z M288.699,44.063v-2.38
				c-0.694,0.273-1.143,0.466-1.345,0.58c-0.363,0.2-0.624,0.409-0.78,0.627c-0.156,0.219-0.234,0.457-0.234,0.716
				c0,0.328,0.1,0.599,0.297,0.815c0.198,0.216,0.426,0.324,0.684,0.324C287.668,44.745,288.128,44.517,288.699,44.063z"/>
			<path d="M295.435,38.963v2.141h-0.25c-0.171-0.672-0.391-1.129-0.658-1.371s-0.608-0.363-1.022-0.363
				c-0.315,0-0.57,0.084-0.764,0.253s-0.29,0.355-0.29,0.56c0,0.255,0.069,0.474,0.209,0.656c0.135,0.187,0.42,0.385,0.854,0.595
				l1,0.485c0.927,0.451,1.391,1.046,1.391,1.784c0,0.57-0.214,1.03-0.643,1.378c-0.429,0.348-0.908,0.523-1.438,0.523
				c-0.382,0-0.816-0.066-1.307-0.199c-0.149-0.044-0.272-0.066-0.367-0.066c-0.104,0-0.187,0.058-0.245,0.172h-0.25v-2.234h0.25
				c0.127,0.636,0.368,1.115,0.726,1.438s0.758,0.484,1.201,0.484c0.312,0,0.565-0.092,0.763-0.276
				c0.196-0.185,0.295-0.407,0.295-0.667c0-0.314-0.11-0.579-0.331-0.792s-0.663-0.485-1.325-0.813
				c-0.662-0.328-1.096-0.624-1.301-0.889c-0.206-0.26-0.309-0.588-0.309-0.984c0-0.516,0.176-0.946,0.528-1.293
				c0.352-0.346,0.807-0.52,1.365-0.52c0.245,0,0.543,0.054,0.893,0.161c0.231,0.069,0.386,0.104,0.463,0.104
				c0.073,0,0.13-0.016,0.171-0.049c0.04-0.033,0.088-0.105,0.143-0.217H295.435z"/>
			<path d="M300.889,38.963v2.141h-0.25c-0.171-0.672-0.391-1.129-0.658-1.371s-0.608-0.363-1.022-0.363
				c-0.315,0-0.57,0.084-0.764,0.253s-0.29,0.355-0.29,0.56c0,0.255,0.069,0.474,0.209,0.656c0.135,0.187,0.42,0.385,0.854,0.595
				l1,0.485c0.927,0.451,1.391,1.046,1.391,1.784c0,0.57-0.214,1.03-0.643,1.378c-0.429,0.348-0.908,0.523-1.438,0.523
				c-0.382,0-0.816-0.066-1.307-0.199c-0.149-0.044-0.272-0.066-0.367-0.066c-0.104,0-0.187,0.058-0.245,0.172h-0.25v-2.234h0.25
				c0.127,0.636,0.368,1.115,0.726,1.438s0.758,0.484,1.201,0.484c0.312,0,0.565-0.092,0.763-0.276
				c0.196-0.185,0.295-0.407,0.295-0.667c0-0.314-0.11-0.579-0.331-0.792s-0.663-0.485-1.325-0.813
				c-0.662-0.328-1.096-0.624-1.301-0.889c-0.206-0.26-0.309-0.588-0.309-0.984c0-0.516,0.176-0.946,0.528-1.293
				c0.352-0.346,0.807-0.52,1.365-0.52c0.245,0,0.543,0.054,0.893,0.161c0.231,0.069,0.386,0.104,0.463,0.104
				c0.073,0,0.13-0.016,0.171-0.049c0.04-0.033,0.088-0.105,0.143-0.217H300.889z"/>
		</g>
		<g>
			<path d="M262.776,70.167l-2.563-5.574v4.434c0,0.401,0.044,0.651,0.134,0.751c0.122,0.135,0.315,0.202,0.581,0.202h0.238v0.188
				h-2.344v-0.188h0.238c0.285,0,0.487-0.083,0.606-0.25c0.072-0.103,0.109-0.337,0.109-0.703v-4.344
				c0-0.289-0.033-0.497-0.099-0.626c-0.047-0.093-0.132-0.171-0.256-0.233s-0.323-0.094-0.598-0.094v-0.188h1.922l2.382,5.146
				l2.352-5.146h1.891v0.188h-0.233c-0.288,0-0.492,0.083-0.611,0.25c-0.072,0.103-0.109,0.337-0.109,0.703v4.344
				c0,0.401,0.046,0.651,0.139,0.751c0.122,0.135,0.316,0.202,0.581,0.202h0.233v0.188h-2.844v-0.188h0.238
				c0.288,0,0.49-0.083,0.606-0.25c0.072-0.103,0.109-0.337,0.109-0.703v-4.434l-2.547,5.574H262.776z"/>
			<path d="M268.662,67.37c-0.003,0.663,0.157,1.183,0.48,1.56s0.704,0.565,1.141,0.565c0.291,0,0.544-0.079,0.76-0.236
				c0.215-0.157,0.396-0.433,0.541-0.826l0.156,0.097c-0.068,0.454-0.268,0.864-0.598,1.229c-0.33,0.366-0.743,0.549-1.239,0.549
				c-0.539,0-1-0.209-1.384-0.628c-0.384-0.418-0.576-0.981-0.576-1.688c0-0.766,0.197-1.362,0.59-1.791
				c0.394-0.428,0.888-0.643,1.482-0.643c0.503,0,0.917,0.165,1.24,0.493c0.323,0.329,0.485,0.769,0.485,1.319H268.662z
				 M268.662,67.088h2.063c-0.016-0.285-0.05-0.486-0.102-0.604c-0.081-0.182-0.202-0.324-0.362-0.428
				c-0.161-0.104-0.329-0.156-0.503-0.156c-0.27,0-0.51,0.104-0.723,0.314S268.697,66.715,268.662,67.088z"/>
			<path d="M274.839,69.529c-0.458,0.352-0.746,0.556-0.862,0.61c-0.175,0.081-0.362,0.121-0.56,0.121
				c-0.309,0-0.563-0.105-0.763-0.316s-0.299-0.488-0.299-0.832c0-0.218,0.048-0.406,0.146-0.565
				c0.133-0.22,0.365-0.428,0.694-0.623c0.33-0.195,0.877-0.432,1.644-0.711v-0.176c0-0.446-0.071-0.753-0.211-0.919
				s-0.345-0.249-0.613-0.249c-0.204,0-0.366,0.056-0.485,0.166c-0.123,0.11-0.184,0.237-0.184,0.38l0.01,0.283
				c0,0.149-0.039,0.265-0.115,0.346c-0.077,0.082-0.177,0.122-0.301,0.122c-0.121,0-0.22-0.042-0.297-0.128
				c-0.077-0.085-0.115-0.202-0.115-0.35c0-0.282,0.143-0.541,0.43-0.777c0.286-0.236,0.688-0.354,1.206-0.354
				c0.397,0,0.723,0.067,0.977,0.2c0.192,0.101,0.333,0.259,0.425,0.474c0.059,0.141,0.088,0.427,0.088,0.86v1.519
				c0,0.427,0.008,0.688,0.024,0.784c0.016,0.096,0.043,0.161,0.08,0.193c0.038,0.033,0.081,0.049,0.129,0.049
				c0.052,0,0.098-0.011,0.137-0.034c0.068-0.042,0.2-0.161,0.395-0.356v0.273c-0.366,0.484-0.716,0.727-1.049,0.727
				c-0.16,0-0.288-0.054-0.382-0.162C274.892,69.974,274.842,69.79,274.839,69.529z M274.839,69.214v-1.688
				c-0.492,0.193-0.81,0.331-0.954,0.411c-0.257,0.142-0.441,0.29-0.552,0.445c-0.111,0.154-0.166,0.324-0.166,0.508
				c0,0.232,0.07,0.425,0.21,0.578s0.301,0.229,0.484,0.229C274.109,69.698,274.435,69.537,274.839,69.214z"/>
			<path d="M279.673,65.557v1.531h-0.172c-0.124-0.484-0.281-0.813-0.474-0.988c-0.193-0.174-0.438-0.262-0.736-0.262
				c-0.227,0-0.41,0.061-0.549,0.182c-0.14,0.121-0.209,0.255-0.209,0.402c0,0.184,0.049,0.341,0.149,0.472
				c0.096,0.134,0.299,0.276,0.61,0.427l0.715,0.349c0.663,0.323,0.995,0.749,0.995,1.277c0,0.408-0.154,0.736-0.462,0.986
				c-0.308,0.249-0.652,0.374-1.034,0.374c-0.274,0-0.587-0.047-0.939-0.141c-0.107-0.031-0.196-0.047-0.264-0.047
				c-0.075,0-0.134,0.042-0.176,0.125h-0.172v-1.594h0.172c0.091,0.455,0.266,0.798,0.524,1.029
				c0.258,0.231,0.547,0.346,0.867,0.346c0.226,0,0.409-0.066,0.551-0.199s0.213-0.292,0.213-0.479c0-0.226-0.081-0.415-0.241-0.569
				c-0.161-0.153-0.478-0.348-0.951-0.584c-0.474-0.235-0.784-0.448-0.931-0.637c-0.147-0.186-0.22-0.42-0.22-0.705
				c0-0.368,0.126-0.676,0.379-0.924c0.253-0.248,0.581-0.372,0.982-0.372c0.176,0,0.391,0.038,0.642,0.113
				c0.167,0.05,0.277,0.074,0.333,0.074c0.052,0,0.093-0.012,0.123-0.034c0.029-0.023,0.063-0.074,0.103-0.153H279.673z"/>
			<path d="M284.584,65.682v2.734c0,0.516,0.012,0.831,0.037,0.946c0.024,0.115,0.063,0.196,0.117,0.241
				c0.054,0.046,0.116,0.068,0.188,0.068c0.101,0,0.214-0.027,0.341-0.083l0.068,0.172l-1.342,0.547h-0.221v-0.942
				c-0.383,0.415-0.676,0.675-0.877,0.782c-0.201,0.106-0.414,0.16-0.638,0.16c-0.25,0-0.467-0.073-0.651-0.22
				s-0.311-0.335-0.382-0.565c-0.072-0.23-0.107-0.556-0.107-0.977v-2.019c0-0.207-0.023-0.35-0.069-0.429
				c-0.046-0.08-0.114-0.141-0.205-0.184c-0.091-0.043-0.254-0.063-0.492-0.06v-0.172h1.578v3.01c0,0.419,0.072,0.694,0.216,0.825
				c0.145,0.131,0.319,0.196,0.523,0.196c0.139,0,0.297-0.044,0.474-0.133c0.177-0.088,0.387-0.257,0.63-0.506v-2.549
				c0-0.259-0.046-0.434-0.139-0.525c-0.093-0.091-0.286-0.14-0.58-0.147v-0.172H284.584z"/>
			<path d="M286.98,65.557v1.01c0.373-0.673,0.756-1.01,1.148-1.01c0.178,0,0.326,0.055,0.442,0.164
				c0.117,0.109,0.175,0.236,0.175,0.38c0,0.128-0.042,0.235-0.126,0.324s-0.185,0.132-0.301,0.132
				c-0.114,0-0.241-0.057-0.382-0.172c-0.142-0.114-0.246-0.172-0.314-0.172c-0.059,0-0.121,0.033-0.189,0.099
				c-0.146,0.135-0.297,0.356-0.453,0.665v2.143c0,0.248,0.032,0.436,0.095,0.563c0.043,0.088,0.12,0.163,0.229,0.222
				c0.109,0.06,0.267,0.09,0.473,0.09v0.172h-2.328v-0.172c0.233,0,0.406-0.036,0.52-0.109c0.083-0.053,0.142-0.137,0.175-0.253
				c0.017-0.056,0.024-0.217,0.024-0.481v-1.703c0-0.534-0.011-0.852-0.031-0.954c-0.021-0.102-0.061-0.176-0.117-0.222
				s-0.127-0.069-0.212-0.069c-0.101,0-0.214,0.024-0.341,0.073l-0.049-0.172l1.357-0.547H286.98z"/>
			<path d="M289.783,67.37c-0.003,0.663,0.157,1.183,0.48,1.56s0.704,0.565,1.141,0.565c0.291,0,0.544-0.079,0.76-0.236
				c0.215-0.157,0.396-0.433,0.541-0.826l0.156,0.097c-0.068,0.454-0.268,0.864-0.598,1.229c-0.33,0.366-0.743,0.549-1.239,0.549
				c-0.539,0-1-0.209-1.384-0.628c-0.384-0.418-0.576-0.981-0.576-1.688c0-0.766,0.197-1.362,0.591-1.791
				c0.394-0.428,0.887-0.643,1.481-0.643c0.503,0,0.916,0.165,1.239,0.493c0.323,0.329,0.485,0.769,0.485,1.319H289.783z
				 M289.783,67.088h2.063c-0.017-0.285-0.05-0.486-0.102-0.604c-0.082-0.182-0.202-0.324-0.363-0.428
				c-0.16-0.104-0.328-0.156-0.503-0.156c-0.27,0-0.51,0.104-0.723,0.314C289.943,66.424,289.819,66.715,289.783,67.088z"/>
			<path d="M296.617,69.666c-0.219,0.231-0.432,0.396-0.64,0.494c-0.209,0.098-0.434,0.147-0.675,0.147
				c-0.488,0-0.915-0.204-1.279-0.613c-0.365-0.409-0.547-0.934-0.547-1.576c0-0.642,0.202-1.229,0.605-1.762
				c0.404-0.532,0.923-0.799,1.559-0.799c0.394,0,0.719,0.131,0.977,0.394v-0.847c0-0.513-0.013-0.829-0.037-0.946
				s-0.063-0.197-0.115-0.24c-0.052-0.042-0.117-0.063-0.196-0.063c-0.085,0-0.197,0.026-0.338,0.078l-0.063-0.172l1.341-0.547
				h0.222v5.203c0,0.518,0.012,0.833,0.036,0.948s0.064,0.194,0.118,0.239s0.117,0.068,0.188,0.068c0.089,0,0.206-0.027,0.354-0.083
				l0.054,0.172l-1.337,0.547h-0.226V69.666z M296.617,69.324v-2.289c-0.02-0.227-0.078-0.431-0.175-0.613
				c-0.098-0.182-0.227-0.32-0.387-0.413s-0.316-0.139-0.469-0.139c-0.285,0-0.539,0.129-0.762,0.386
				c-0.295,0.339-0.442,0.833-0.442,1.484c0,0.658,0.143,1.161,0.428,1.511c0.284,0.35,0.602,0.525,0.951,0.525
				C296.056,69.776,296.341,69.625,296.617,69.324z"/>
		</g>
		<g>
			<path d="M263.245,79.901v2.266h-0.188c-0.059-0.434-0.164-0.779-0.315-1.036s-0.366-0.461-0.646-0.612
				c-0.28-0.151-0.569-0.227-0.869-0.227c-0.338,0-0.618,0.104-0.839,0.31s-0.332,0.441-0.332,0.704c0,0.202,0.07,0.385,0.209,0.551
				c0.202,0.244,0.681,0.568,1.438,0.975c0.618,0.332,1.04,0.586,1.268,0.763s0.402,0.385,0.525,0.625
				c0.123,0.24,0.184,0.491,0.184,0.754c0,0.5-0.195,0.931-0.583,1.292c-0.39,0.362-0.89,0.542-1.502,0.542
				c-0.192,0-0.373-0.015-0.542-0.044c-0.102-0.016-0.311-0.075-0.628-0.178c-0.317-0.102-0.519-0.153-0.603-0.153
				c-0.082,0-0.146,0.024-0.193,0.073c-0.047,0.049-0.082,0.149-0.105,0.302h-0.188v-2.266h0.188
				c0.084,0.476,0.198,0.832,0.341,1.067c0.143,0.236,0.361,0.433,0.656,0.589c0.294,0.156,0.617,0.234,0.968,0.234
				c0.406,0,0.727-0.107,0.963-0.322s0.354-0.468,0.354-0.761c0-0.162-0.044-0.326-0.134-0.492c-0.089-0.166-0.228-0.32-0.416-0.464
				c-0.127-0.097-0.473-0.304-1.04-0.619s-0.969-0.567-1.209-0.756c-0.24-0.188-0.422-0.397-0.546-0.625s-0.186-0.478-0.186-0.751
				c0-0.475,0.182-0.884,0.547-1.227c0.364-0.343,0.829-0.515,1.392-0.515c0.352,0,0.725,0.085,1.119,0.255
				c0.183,0.08,0.311,0.12,0.386,0.12c0.085,0,0.154-0.024,0.208-0.074s0.097-0.15,0.129-0.301H263.245z"/>
			<path d="M265.328,83.87c-0.003,0.663,0.157,1.183,0.48,1.56s0.704,0.565,1.141,0.565c0.291,0,0.544-0.079,0.76-0.236
				c0.215-0.157,0.396-0.433,0.541-0.826l0.156,0.097c-0.068,0.454-0.268,0.864-0.598,1.229c-0.33,0.366-0.743,0.549-1.239,0.549
				c-0.539,0-1-0.209-1.384-0.628c-0.384-0.418-0.576-0.981-0.576-1.688c0-0.766,0.197-1.362,0.59-1.791
				c0.394-0.428,0.888-0.643,1.482-0.643c0.503,0,0.917,0.165,1.24,0.493c0.323,0.329,0.485,0.769,0.485,1.319H265.328z
				 M265.328,83.588h2.063c-0.016-0.285-0.05-0.486-0.102-0.604c-0.081-0.182-0.202-0.324-0.362-0.428
				c-0.161-0.104-0.329-0.156-0.503-0.156c-0.27,0-0.51,0.104-0.723,0.314S265.364,83.215,265.328,83.588z"/>
			<path d="M270.537,79.713v5.938c0,0.283,0.02,0.471,0.061,0.563c0.041,0.092,0.103,0.162,0.187,0.21
				c0.084,0.048,0.241,0.071,0.471,0.071v0.172h-2.203v-0.172c0.209,0,0.352-0.021,0.428-0.064s0.136-0.114,0.179-0.212
				s0.065-0.288,0.065-0.567v-4.047c0-0.513-0.011-0.828-0.033-0.946c-0.022-0.117-0.058-0.197-0.106-0.24s-0.111-0.064-0.187-0.064
				c-0.082,0-0.187,0.026-0.313,0.078l-0.08-0.172l1.314-0.547H270.537z"/>
			<path d="M273.318,79.713v5.938c0,0.283,0.02,0.471,0.061,0.563c0.041,0.092,0.103,0.162,0.187,0.21
				c0.084,0.048,0.241,0.071,0.471,0.071v0.172h-2.203v-0.172c0.209,0,0.352-0.021,0.428-0.064s0.136-0.114,0.179-0.212
				s0.065-0.288,0.065-0.567v-4.047c0-0.513-0.011-0.828-0.033-0.946c-0.022-0.117-0.058-0.197-0.106-0.24s-0.111-0.064-0.187-0.064
				c-0.082,0-0.187,0.026-0.313,0.078l-0.08-0.172l1.314-0.547H273.318z"/>
			<path d="M275.896,83.017c0.325-0.328,0.517-0.517,0.576-0.566c0.146-0.124,0.304-0.221,0.473-0.29s0.336-0.104,0.502-0.104
				c0.28,0,0.521,0.082,0.722,0.246s0.337,0.402,0.405,0.714c0.335-0.394,0.619-0.652,0.851-0.775s0.469-0.185,0.714-0.185
				c0.238,0,0.449,0.061,0.633,0.183s0.33,0.322,0.438,0.598c0.072,0.189,0.108,0.485,0.108,0.889v1.924
				c0,0.283,0.021,0.477,0.063,0.582c0.033,0.072,0.093,0.134,0.18,0.186c0.088,0.051,0.23,0.076,0.429,0.076v0.172h-2.203v-0.172
				h0.092c0.191,0,0.34-0.038,0.447-0.113c0.074-0.053,0.128-0.137,0.16-0.252c0.013-0.056,0.02-0.215,0.02-0.479v-1.919
				c0-0.363-0.044-0.62-0.132-0.77c-0.127-0.208-0.331-0.312-0.611-0.312c-0.173,0-0.346,0.043-0.521,0.129s-0.385,0.247-0.633,0.48
				l-0.01,0.054l0.016,0.209v2.127c0,0.31,0.017,0.502,0.05,0.577c0.034,0.076,0.098,0.139,0.191,0.19
				c0.093,0.051,0.252,0.076,0.478,0.076v0.172h-2.25v-0.172c0.244,0,0.412-0.029,0.504-0.089c0.092-0.059,0.155-0.148,0.19-0.267
				c0.016-0.056,0.024-0.219,0.024-0.488v-1.918c0-0.363-0.054-0.623-0.161-0.778c-0.143-0.202-0.343-0.304-0.6-0.304
				c-0.176,0-0.35,0.046-0.521,0.138c-0.27,0.14-0.478,0.297-0.624,0.472v2.39c0,0.296,0.02,0.488,0.06,0.577s0.1,0.155,0.179,0.2
				c0.079,0.044,0.239,0.066,0.48,0.066v0.172h-2.203v-0.172c0.203,0,0.345-0.022,0.425-0.066c0.081-0.045,0.142-0.115,0.184-0.212
				s0.063-0.285,0.063-0.565v-1.703c0-0.496-0.015-0.815-0.044-0.96c-0.023-0.108-0.059-0.183-0.107-0.224s-0.115-0.062-0.199-0.062
				c-0.091,0-0.2,0.024-0.327,0.073l-0.073-0.172l1.352-0.547h0.211V83.017z"/>
			<path d="M283.121,83.87c-0.003,0.663,0.157,1.183,0.48,1.56c0.323,0.377,0.704,0.565,1.141,0.565c0.291,0,0.544-0.079,0.76-0.236
				c0.215-0.157,0.396-0.433,0.541-0.826l0.156,0.097c-0.068,0.454-0.268,0.864-0.598,1.229c-0.33,0.366-0.743,0.549-1.24,0.549
				c-0.539,0-1-0.209-1.384-0.628c-0.384-0.418-0.576-0.981-0.576-1.688c0-0.766,0.197-1.362,0.59-1.791
				c0.394-0.428,0.887-0.643,1.482-0.643c0.503,0,0.916,0.165,1.239,0.493c0.323,0.329,0.485,0.769,0.485,1.319H283.121z
				 M283.121,83.588h2.063c-0.017-0.285-0.05-0.486-0.102-0.604c-0.082-0.182-0.202-0.324-0.363-0.428s-0.328-0.156-0.503-0.156
				c-0.269,0-0.51,0.104-0.722,0.314S283.156,83.215,283.121,83.588z"/>
			<path d="M288.33,82.057v3.594c0,0.283,0.02,0.471,0.06,0.565c0.041,0.094,0.101,0.164,0.18,0.209
				c0.078,0.046,0.223,0.069,0.433,0.069v0.172h-2.156v-0.172c0.214,0,0.357-0.021,0.432-0.064c0.073-0.042,0.132-0.114,0.175-0.212
				s0.065-0.288,0.065-0.567v-1.703c0-0.495-0.015-0.816-0.044-0.962c-0.023-0.106-0.059-0.18-0.107-0.221s-0.115-0.062-0.199-0.062
				c-0.092,0-0.202,0.024-0.332,0.073l-0.067-0.172l1.348-0.547H288.33z M287.925,79.713c0.138,0,0.256,0.048,0.353,0.143
				s0.146,0.211,0.146,0.347s-0.049,0.252-0.146,0.349c-0.097,0.097-0.215,0.146-0.353,0.146s-0.256-0.048-0.354-0.146
				c-0.099-0.097-0.147-0.213-0.147-0.349s0.048-0.251,0.145-0.347S287.784,79.713,287.925,79.713z"/>
			<path d="M290.345,83.87c-0.004,0.663,0.156,1.183,0.48,1.56c0.323,0.377,0.703,0.565,1.141,0.565
				c0.291,0,0.544-0.079,0.759-0.236c0.216-0.157,0.396-0.433,0.542-0.826l0.156,0.097c-0.069,0.454-0.269,0.864-0.598,1.229
				c-0.33,0.366-0.743,0.549-1.24,0.549c-0.539,0-1-0.209-1.384-0.628c-0.384-0.418-0.575-0.981-0.575-1.688
				c0-0.766,0.196-1.362,0.59-1.791c0.394-0.428,0.888-0.643,1.482-0.643c0.503,0,0.916,0.165,1.239,0.493
				c0.323,0.329,0.485,0.769,0.485,1.319H290.345z M290.345,83.588h2.063c-0.017-0.285-0.051-0.486-0.103-0.604
				c-0.081-0.182-0.202-0.324-0.362-0.428c-0.161-0.104-0.328-0.156-0.504-0.156c-0.269,0-0.51,0.104-0.722,0.314
				C290.504,82.924,290.38,83.215,290.345,83.588z"/>
			<path d="M295.32,82.057v1.01c0.372-0.673,0.755-1.01,1.147-1.01c0.179,0,0.326,0.055,0.442,0.164
				c0.117,0.109,0.176,0.236,0.176,0.38c0,0.128-0.043,0.235-0.127,0.324s-0.185,0.132-0.301,0.132
				c-0.113,0-0.241-0.057-0.382-0.172c-0.142-0.114-0.246-0.172-0.314-0.172c-0.058,0-0.121,0.033-0.189,0.099
				c-0.146,0.135-0.297,0.356-0.452,0.665v2.143c0,0.248,0.031,0.436,0.095,0.563c0.043,0.088,0.119,0.163,0.229,0.222
				c0.109,0.06,0.268,0.09,0.474,0.09v0.172h-2.328v-0.172c0.232,0,0.405-0.036,0.519-0.109c0.083-0.053,0.142-0.137,0.175-0.253
				c0.017-0.056,0.025-0.217,0.025-0.481v-1.703c0-0.534-0.011-0.852-0.032-0.954c-0.021-0.102-0.06-0.176-0.117-0.222
				c-0.057-0.046-0.127-0.069-0.211-0.069c-0.102,0-0.215,0.024-0.342,0.073l-0.048-0.172l1.356-0.547H295.32z"/>
		</g>
		<path fill="none" stroke="#FB0F0C" stroke-linecap="square" stroke-miterlimit="10" d="M242.833,83.667H253.5"/>
	</g>
	<g id="Layer_2">
		<g>
			<g>
				<g>
				</g>
			</g>
		</g>
		<g>
			<g>
			</g>
			<g>
			</g>
		</g>
		<g opacity="0.7">
			<g>
			</g>
			<g>
				<g>
					<g>
						<g>
							<path fill="none" stroke="#0A50A1" d="M245.355,70.371l5.734-7.769"/>
							<path fill="none" stroke="#0A50A1" d="M251.089,70.371l-5.734-7.769"/>
						</g>
					</g>
					<g>
						<g>
							<path fill="none" stroke="#0A50A1" d="M308,206.602l5.734-7.77"/>
							<path fill="none" stroke="#0A50A1" d="M313.734,206.602l-5.734-7.77"/>
						</g>
					</g>
					<g>
						<g>
							<path fill="none" stroke="#0A50A1" d="M217.426,195.862l5.735-7.77"/>
							<path fill="none" stroke="#0A50A1" d="M223.161,195.862l-5.735-7.77"/>
						</g>
					</g>
					<g>
						<g>
							<path fill="none" stroke="#0A50A1" d="M208.554,194.709l5.735-7.769"/>
							<path fill="none" stroke="#0A50A1" d="M214.289,194.709l-5.735-7.769"/>
						</g>
					</g>
					<g>
						<g>
							<path fill="none" stroke="#0A50A1" d="M177.328,190.083l5.735-7.769"/>
							<path fill="none" stroke="#0A50A1" d="M183.063,190.083l-5.735-7.769"/>
						</g>
					</g>
					<g>
						<g>
							<path fill="none" stroke="#0A50A1" d="M149.246,184.341l5.735-7.769"/>
							<path fill="none" stroke="#0A50A1" d="M154.981,184.341l-5.735-7.769"/>
						</g>
					</g>
					<g>
						<g>
							<path fill="none" stroke="#0A50A1" d="M139.563,181.684l5.735-7.77"/>
							<path fill="none" stroke="#0A50A1" d="M145.298,181.684l-5.735-7.77"/>
						</g>
					</g>
					<g>
						<g>
							<path fill="none" stroke="#0A50A1" d="M137.153,180.94l5.735-7.769"/>
							<path fill="none" stroke="#0A50A1" d="M142.888,180.94l-5.735-7.769"/>
						</g>
					</g>
					<g>
						<g>
							<path fill="none" stroke="#0A50A1" d="M135.031,180.253l5.735-7.77"/>
							<path fill="none" stroke="#0A50A1" d="M140.766,180.253l-5.735-7.77"/>
						</g>
					</g>
					<g>
						<g>
							<path fill="none" stroke="#0A50A1" d="M126.641,177.206l5.735-7.769"/>
							<path fill="none" stroke="#0A50A1" d="M132.376,177.206l-5.735-7.769"/>
						</g>
					</g>
					<g>
						<g>
							<path fill="none" stroke="#0A50A1" d="M126.313,177.076l5.735-7.77"/>
							<path fill="none" stroke="#0A50A1" d="M132.048,177.076l-5.735-7.77"/>
						</g>
					</g>
					<g>
						<g>
							<path fill="none" stroke="#0A50A1" d="M118.309,173.508l5.735-7.77"/>
							<path fill="none" stroke="#0A50A1" d="M124.044,173.508l-5.735-7.77"/>
						</g>
					</g>
					<g>
						<g>
							<path fill="none" stroke="#0A50A1" d="M106.737,166.707l5.735-7.77"/>
							<path fill="none" stroke="#0A50A1" d="M112.472,166.707l-5.735-7.77"/>
						</g>
					</g>
					<g>
						<g>
							<path fill="none" stroke="#0A50A1" d="M105.56,165.871l5.735-7.77"/>
							<path fill="none" stroke="#0A50A1" d="M111.295,165.871l-5.735-7.77"/>
						</g>
					</g>
					<g>
						<g>
							<path fill="none" stroke="#0A50A1" d="M97.035,158.717l5.735-7.77"/>
							<path fill="none" stroke="#0A50A1" d="M102.77,158.717l-5.735-7.77"/>
						</g>
					</g>
					<g>
						<g>
							<path fill="none" stroke="#0A50A1" d="M91.037,152.102l5.735-7.77"/>
							<path fill="none" stroke="#0A50A1" d="M96.772,152.102l-5.735-7.77"/>
						</g>
					</g>
					<g>
						<g>
							<path fill="none" stroke="#0A50A1" d="M83.379,140.897l5.735-7.77"/>
							<path fill="none" stroke="#0A50A1" d="M89.115,140.897l-5.735-7.77"/>
						</g>
					</g>
					<g>
						<g>
							<path fill="none" stroke="#0A50A1" d="M77.42,128.912l5.735-7.77"/>
							<path fill="none" stroke="#0A50A1" d="M83.155,128.912l-5.735-7.77"/>
						</g>
					</g>
					<g>
						<g>
							<path fill="none" stroke="#0A50A1" d="M73.273,117.949l5.735-7.77"/>
							<path fill="none" stroke="#0A50A1" d="M79.008,117.949l-5.735-7.77"/>
						</g>
					</g>
				</g>
			</g>
		</g>
	</g>
</svg>
